<svg viewBox="0 0 24 24" xmlns="http://www.w3.org/2000/svg">
<path fill-rule="evenodd" clip-rule="evenodd" d="M12 0C18.6274 0 24 5.37258 24 12C24 18.6274 18.6274 24 12 24C5.37258 24 0 18.6274 0 12C0 5.37258 5.37258 0 12 0ZM12 3.42857C7.26613 3.42857 3.42857 7.26613 3.42857 12C3.42857 16.7339 7.26613 20.5714 12 20.5714C16.7339 20.5714 20.5714 16.7339 20.5714 12C20.5714 7.26613 16.7339 3.42857 12 3.42857ZM12.6434 7.71429C12.9805 7.71429 13.3213 7.74493 13.666 7.8062C14.0107 7.86748 14.2941 7.95174 14.5163 8.05898L13.9533 9.5067C13.7848 9.42244 13.576 9.35733 13.3271 9.31138C13.0781 9.26542 12.8311 9.24244 12.586 9.24244C12.3868 9.24244 12.1915 9.26733 12 9.31712C11.8085 9.36691 11.6304 9.43968 11.4657 9.53543C11.301 9.63118 11.1536 9.75182 11.0234 9.89736C10.8931 10.0429 10.7936 10.2076 10.7246 10.3914H13.7694L13.3673 11.5864H10.4029C10.3876 11.6553 10.3799 11.7223 10.3799 11.7874V12.2011C10.3799 12.2738 10.3838 12.3409 10.3914 12.4021H13.1605L12.7698 13.5856H10.6327C10.6863 13.7465 10.7706 13.8977 10.8855 14.0394C11.0004 14.1812 11.1421 14.3037 11.3106 14.4071C11.4791 14.5105 11.6668 14.591 11.8736 14.6484C12.0804 14.7059 12.2987 14.7346 12.5285 14.7346C13.0954 14.7346 13.5818 14.6159 13.9877 14.3784L14.4129 15.8376C14.1907 15.9678 13.9054 16.0751 13.5569 16.1593C13.2083 16.2436 12.8196 16.2857 12.3907 16.2857C11.8851 16.2857 11.4313 16.2168 11.0291 16.0789C10.627 15.941 10.2765 15.7514 9.97779 15.5101C9.67905 15.2689 9.42819 14.9835 9.2252 14.6542C9.02221 14.3248 8.87093 13.9686 8.77135 13.5856H7.71429L8.10494 12.4021H8.62198C8.61432 12.3332 8.61049 12.2643 8.61049 12.1953V12C8.61049 11.8621 8.62198 11.7242 8.64496 11.5864H7.74876L8.16239 10.3914H8.81731C8.93987 9.97012 9.11988 9.59479 9.35733 9.26542C9.59479 8.93604 9.88012 8.65646 10.2133 8.42666C10.5465 8.19686 10.918 8.02068 11.3278 7.89812C11.7377 7.77556 12.1762 7.71429 12.6434 7.71429Z" />
</svg>
