<?xml version="1.0" encoding="UTF-8"?>
<svg width="32px" height="32px" viewBox="0 0 32 32" version="1.1" xmlns="http://www.w3.org/2000/svg" xmlns:xlink="http://www.w3.org/1999/xlink">
  <g transform='translate(-5 0)'>
    <path d="M17.6,5 L27,5 L27,2.52631579 L17.6,5 Z M29,5 L32,5 L32,32 L10,32 L10,5 L29,0 L29,5 Z M26,25 L16,25 L16,22 C16,21 17,20 18,20 L24,20 C25,20 26,21 26,22 L26,25 Z M21,18 C19.3431458,18 18,16.6568542 18,15 C18,13.3431458 19.3431458,12 21,12 C22.6568542,12 24,13.3431458 24,15 C24,16.6568542 22.6568542,18 21,18 Z M14,27.96 L28,27.96 L28,9 L14,9 L14,27.96 Z"></path>
  </g>
</svg>
