<?xml version="1.0" encoding="UTF-8"?>
<svg width="56px" height="34px" viewBox="0 0 56 34" version="1.1" xmlns="http://www.w3.org/2000/svg" xmlns:xlink="http://www.w3.org/1999/xlink" aria-label="Auto">
    <g transform="translate(0, -12.000000)">
        <path d="M42,35 C44.8994949,35 47.25,37.3505051 47.25,40.25 C47.25,43.1494949 44.8994949,45.5 42,45.5 C39.1005051,45.5 36.75,43.1494949 36.75,40.25 C36.75,37.3505051 39.1005051,35 42,35 Z M12.25,35 C15.1494949,35 17.5,37.3505051 17.5,40.25 C17.5,43.1494949 15.1494949,45.5 12.25,45.5 C9.35050506,45.5 7,43.1494949 7,40.25 C7,37.3505051 9.35050506,35 12.25,35 Z M33.25,12.25 L45.5,24.5 L56,24.5 L56,40.25 L50.75,40.25 C50.75,35.4175084 46.8324916,31.5 42,31.5 C37.1675084,31.5 33.25,35.4175084 33.25,40.25 L21,40.25 C21,35.4175084 17.0824916,31.5 12.25,31.5 C7.41750844,31.5 3.5,35.4175084 3.5,40.25 L-9.9475983e-14,40.25 L-9.9475983e-14,24.5 L12.25,12.25 L33.25,12.25 Z M31.5,15.75 L22.75,15.75 L22.75,24.5 L40.1833496,24.5 L31.5,15.75 Z M19.25,15.75 L14,15.75 L5.25,24.5 L19.25,24.5 L19.25,15.75 Z" id="Combined-Shape"></path>
    </g>
</svg>
