<svg width="32" height="32" viewBox="0 0 32 32" fill="none" xmlns="http://www.w3.org/2000/svg">
  <path fill-rule="evenodd" clip-rule="evenodd"
    d="M24 0H8V3H24V0ZM28 6H4V9H28V6ZM0 14C0 12.8954 0.895432 12 2 12H30C31.1046 12 32 12.8954 32 14V30C32 31.1046 31.1046 32 30 32H2C0.895432 32 0 31.1046 0 30V14ZM16.375 21.4615V19.8461H12.625C12.7361 19.7424 12.8258 19.6188 12.9189 19.4905C13.0674 19.2858 13.2243 19.0694 13.4904 18.9038C15.2212 17.1538 18.1058 17.1538 19.9808 18.9038L22 17.0192C18.9712 14.3269 14.2115 14.3269 11.3269 17.0192C10.4615 17.8269 9.88461 18.7692 9.59616 19.8461H7V21.4615H9.30769V22.6731H7V24.2885H9.59616C9.88461 25.2308 10.4615 26.1731 11.3269 26.9808C14.3558 29.6731 19.1154 29.6731 22 26.9808L19.9808 25.0962C18.25 26.8462 15.3654 26.8462 13.4904 25.0962C13.2019 24.8269 12.9135 24.5577 12.7692 24.2885H16.375V22.6731H12.0481V21.4615H16.375Z" />
</svg>