<?xml version="1.0" encoding="UTF-8"?>
<svg width="32px" height="32px" viewBox="0 0 32 32" version="1.1" xmlns="http://www.w3.org/2000/svg" xmlns:xlink="http://www.w3.org/1999/xlink">
    <title>Huisvuilkalender</title>
    <path d="M21,0 L21,4 L29,4 L29,8 L27,8 L27,32 L5,32 L5,8 L3,8 L3,4 L11,4 L11,0 L21,0 Z M23,8 L9,8 L9,28 L23,28 L23,8 Z M13,12 L13,24 L11.02,24 L11.02,12 L13,12 Z M17,12 L17,24 L15,24 L15,12 L17,12 Z M21,12 L21,24 L19.02,24 L19.02,12 L21,12 Z M19,2 L13,2 L13,4 L19,4 L19,2 Z"></path>
</svg>
