<svg width="32" height="32" viewBox="0 0 32 32" fill="none" xmlns="http://www.w3.org/2000/svg">
  <path fill-rule="evenodd" clip-rule="evenodd"
    d="M0 32V9L17 8H32V32H0ZM15 16H28V12H4V28H28V24H15V16ZM17 22H28V18H17V22ZM18 19H21V21H18V19Z"
  />
  <circle cx="9" cy="9" r="9" fill="white" />
  <path fill-rule="evenodd" clip-rule="evenodd"
    d="M9 18C13.9706 18 18 13.9706 18 9C18 4.02944 13.9706 0 9 0C4.02944 0 0 4.02944 0 9C0 13.9706 4.02944 18 9 18ZM8.02588 10.7873C8.02588 12.2993 6.79341 13.3285 4.97647 13.3285C3.78212 13.3285 2.76565 12.8584 2.11765 12.0198L3.38823 10.8254C3.79482 11.3591 4.35388 11.6386 4.96376 11.6386C5.61176 11.6386 6.03106 11.3209 6.03106 10.8508C6.03106 10.2791 5.54823 10.0504 4.43012 9.64377C3.45176 9.288 2.42259 8.74165 2.42259 7.20424C2.42259 5.75576 3.61694 4.76471 5.37035 4.76471C6.53929 4.76471 7.49223 5.20941 8.03859 6.00988L6.768 7.20424C6.42494 6.72141 5.94212 6.45459 5.38306 6.45459C4.78588 6.45459 4.41741 6.72141 4.41741 7.14071C4.41741 7.71247 4.90023 7.94118 6.01835 8.34776C6.9967 8.70353 8.02588 9.24988 8.02588 10.7873ZM13.602 13.176H11.4166L8.48151 4.91718H10.6415L12.5347 10.8762H12.5601L14.4914 4.91718H16.537L13.602 13.176Z"
    fill="#EC0000" />
</svg>
