<?xml version="1.0" encoding="UTF-8"?>
<svg width="12px" height="16px" viewBox="0 0 12 16" version="1.1" xmlns="http://www.w3.org/2000/svg" xmlns:xlink="http://www.w3.org/1999/xlink" aria-label="Locatie icoon">
    <g stroke="none" stroke-width="1" fill="none" fill-rule="evenodd">
        <g transform="translate(-2.000000, 0.000000)" fill="#000000">
            <path d="M8,-1.08357767e-13 C11.3137085,-1.08357767e-13 14,2.6862915 14,6 C14,7.55064564 13.4117666,8.96390202 12.4462718,10.0287972 L12.4856341,10.0203947 L8,16 L3.52801379,10.0229874 L3.5519251,10.0268076 C2.58750106,8.962142 2,7.54968011 2,6 C2,2.6862915 4.6862915,-1.08357767e-13 8,-1.08357767e-13 Z M8,2 C5.790861,2 4,3.790861 4,6 C4,8.209139 5.790861,10 8,10 C10.209139,10 12,8.209139 12,6 C12,3.790861 10.209139,2 8,2 Z M8.00512164,4.00512164 C9.10969114,4.00512164 10.0051216,4.90055214 10.0051216,6.00512164 C10.0051216,7.10969114 9.10969114,8.00512164 8.00512164,8.00512164 C6.90055214,8.00512164 6.00512164,7.10969114 6.00512164,6.00512164 C6.00512164,4.90055214 6.90055214,4.00512164 8.00512164,4.00512164 Z"></path>
        </g>
    </g>
</svg>
