<?xml version="1.0" encoding="UTF-8"?>
<svg width="32px" height="20px" viewBox="0 0 32 20" version="1.1" xmlns="http://www.w3.org/2000/svg" xmlns:xlink="http://www.w3.org/1999/xlink" aria-label="Stadspas icoon">
    <g transform="translate(0.000000, -6.000000)">
      <path d="M4,6 L28,6 C30.209139,6 32,7.790861 32,10 L32,22 C32,24.209139 30.209139,26 28,26 L4,26 C1.790861,26 2.705415e-16,24.209139 0,22 L0,10 C-2.705415e-16,7.790861 1.790861,6 4,6 Z M16,22 C19.3137085,22 22,19.3137085 22,16 C22,12.6862915 19.3137085,10 16,10 C12.6862915,10 10,12.6862915 10,16 C10,19.3137085 12.6862915,22 16,22 Z"></path>
    </g>
</svg>
