<svg width="24" height="23" viewBox="0 0 24 23" xmlns="http://www.w3.org/2000/svg">
  <path
    d="M18.3429 0H5.02857V14.6286L12.9143 22.8571L13.8286 22.1143C14.0571 21.9429 14.1714 21.7714 14.2286 21.6C14.2857 21.4286 14.3429 21.2 14.3429 20.9714V20.6857L13.0857 14.6286H22.2857C22.7429 14.6286 23.1429 14.4571 23.4857 14.1143C23.8286 13.7714 24 13.3714 24 12.9143V10.5714C24 10.3429 24 10.1143 23.9429 9.82857C23.8857 9.54286 23.8286 9.31429 23.7143 9.08571L20.4 1.42857C20.2286 1.02857 19.9429 0.685714 19.5429 0.4C19.1429 0.114286 18.7429 0 18.3429 0ZM3.25714 14.6286V0H-1.90735e-06V14.6286H3.25714Z"
  />
</svg>