<svg width="24" height="23" viewBox="0 0 24 23" xmlns="http://www.w3.org/2000/svg">
  <path
    d="M18.2857 22.8571H4.97143V8.22857L12.9143 0L13.8286 0.742857C14.0571 0.914286 14.1714 1.08571 14.2286 1.25714C14.2857 1.42857 14.3429 1.65714 14.3429 1.94286V2.22857L13.0857 8.28571H22.2857C22.7429 8.28571 23.1429 8.45714 23.4857 8.8C23.8286 9.14286 24 9.54286 24 10V12.3429C24 12.5714 24 12.8 23.9429 13.0857C23.8857 13.3714 23.8286 13.6 23.7143 13.8286L20.4 21.4857C20.2286 21.8857 19.9429 22.2286 19.5429 22.5143C19.1429 22.8 18.7429 22.8571 18.2857 22.8571ZM3.25714 8.22857V22.8571H0V8.22857H3.25714Z"
  />
</svg>