<?xml version="1.0" encoding="UTF-8"?>
<svg focusable="false" width="32px" height="32px" viewBox="0 0 32 32" version="1.1" xmlns="http://www.w3.org/2000/svg" xmlns:xlink="http://www.w3.org/1999/xlink">
  <title>Vergunningen</title>
  <path d="M16.484451,4 L32,4 L32,32 L9,32 L9,18 C4.02943725,18 0,13.9705627 0,9 C0,4.02943725 4.02943725,0 9,0 C12.1204161,0 14.8699283,1.58802851 16.484451,4 L16.484451,4 Z M13,17.0644804 L13,28 L28,28 L28,8 L17.9450712,8 C17.9813667,8.32833385 18,8.6619909 18,9 C18,9.68738796 17.9229386,10.3567773 17.7769836,11 L26,11 L26,13 L17.0644804,13 C16.7026429,13.7281052 16.2451031,14.4002581 15.7083195,15 L26,15 L26,17 L15,17 L15,15.7083195 C14.4002581,16.2451031 13.7281052,16.7026429 13,17.0644804 L13,17.0644804 Z M15,19 L26,19 L26,21 L15,21 L15,19 Z M15,23 L26,23 L26,25 L15,25 L15,23 Z M9,16 C12.8659932,16 16,12.8659932 16,9 C16,5.13400675 12.8659932,2 9,2 C5.13400675,2 2,5.13400675 2,9 C2,12.8659932 5.13400675,16 9,16 Z M6.66999759,7.79669628 L8.79131794,9.91801663 L12.3300024,6.37933216 L13.744216,7.79354572 L8.79131794,12.7464438 L5.25578403,9.21090984 L6.66999759,7.79669628 Z" id="Shape"></path>
</svg>
