<?xml version="1.0" encoding="UTF-8" standalone="no"?>
<svg
   xmlns="http://www.w3.org/2000/svg"
   version="1.0"
   width="32px"
   height="28px"
   viewBox="0 0 120 150" aria-label="Wior icoon">
  <g
     transform="translate(-115,-370) scale(1)"
     id="layer1">
    <path
       id="path7"
       d="m 163.31023,459.48829 c -0.0148,-0.4961 -0.15726,-0.9791 -0.41113,-1.39521 l -10.25563,-16.81036 -16.05024,-9.01008 -24.32565,48.72176 c -0.78954,1.58951 -1.20587,3.35682 -1.20587,5.15164 0,4.08025 2.12514,7.81679 5.52519,9.7259 l 25.65165,-51.38394 10.78173,17.67687 0.8071,23.11213 c 0.20636,5.91486 4.78793,10.59494 10.3694,10.59494 0.17802,0 0.20995,0 0.38638,-0.005 l -1.27293,-36.37883 m -21.42174,-40.76443 -2.0493,4.10226 -6.12472,-5.36965 -2.74662,5.50722 c -2.97454,-1.67248 -4.83543,-4.94506 -4.83543,-8.51439 0,-1.56835 0.36164,-3.11596 1.05578,-4.5044 l 7.47509,-14.96306 c 1.12124,-2.25368 3.32659,-3.66287 5.72955,-3.66287 h 22.89145 c 5.73235,0 10.37338,4.92941 10.37338,11.00894 0,0.23748 -0.002,0.46564 -0.0204,0.70481 l -2.53188,41.28596 24.34202,21.46589 c -0.94242,1.18356 -2.13751,2.10468 -3.49027,2.69392 l -21.19303,-18.5637 -0.28579,4.66569 c -4.77437,-0.32595 -8.49135,-4.5315 -8.49135,-9.60906 0,-0.21336 0.008,-0.40511 0.0167,-0.61677 l 0.12494,-2.00732 -5.94829,-5.2109 2.04809,-4.09803 4.23948,3.71113 1.0502,-17.24764 -9.65929,19.34978 -16.05145,-9.01517 14.42008,-28.88476 h -10.272 l -6.19616,12.40501 6.1291,5.36711 z m 39.55322,-43.22428 c -5.3743,0 -9.72915,4.61827 -9.72915,10.3164 0,5.70068 4.35485,10.3198 9.72915,10.3198 5.37469,0 9.72874,-4.61912 9.72874,-10.3198 0,-5.69813 -4.35405,-10.3164 -9.72874,-10.3164 z m 10.25962,94.54515 c 1.84452,-0.63412 3.48587,-1.80245 4.73763,-3.3708 l 10.12032,-12.70174 c 2.46442,-3.0893 6.088,-4.87099 9.90517,-4.87099 4.03392,0 7.83193,1.98234 10.28877,5.37133 l 26.79565,36.97331 c 0.34846,0.48215 0.53487,1.06801 0.53487,1.67714 0,1.51925 -1.15837,2.74812 -2.59055,2.74812 h -77.83631 c -1.4294,0 -2.59175,-1.22887 -2.59175,-2.74812 0,-0.65485 0.21435,-1.27922 0.61111,-1.77534 l 14.8823,-18.67249 c 0.62708,-0.78651 1.44736,-1.36897 2.36982,-1.68815 z" />
  </g>
</svg>
