<?xml version="1.0" encoding="UTF-8"?>
<svg width="32px" height="32px" viewBox="0 0 32 32" version="1.1" xmlns="http://www.w3.org/2000/svg"
  xmlns:xlink="http://www.w3.org/1999/xlink">
  <g stroke="none" stroke-width="1" fill-rule="evenodd">
    <path
      d="M29,2 L29,22 L20,22 L20,30 L12.004178,22 L3,22 L3,2 L29,2 Z M16,5 C15.4466667,5 15,5.43459459 15,5.97297297 L15,7 C12.8961906,7 11,8.82702703 11,11 L11,14.8918919 L10,16 L10,17 L15,17 C15,17.5527638 15.4472362,18 16,18 C16.5527638,18 17,17.5527638 17,17 L22,17 L22,16 L21,15.0540541 L21,11 C21,8.82702703 18.984787,7 17,7 L17,5.97297297 C17,5.43459459 16.5533333,5 16,5 Z"></path>
  </g>
</svg>