<?xml version="1.0" encoding="UTF-8"?>
<svg width="24" height="24" viewBox="0 0 24 24" fill="none" xmlns="http://www.w3.org/2000/svg"
  aria-label="Overtredingen voertuigen icoon">
  <g clip-path="url(#clip0_13205_8000)">
    <path
      d="M10.9585 12.8203C9.42423 12.8203 8.21875 14.0258 8.21875 15.56C8.21875 17.0943 9.42423 18.2998 10.9585 18.2998C12.4927 18.2998 13.6982 17.0943 13.6982 15.56C13.6982 14.0258 12.4927 12.8203 10.9585 12.8203Z"
    />
    <path
      d="M13.1507 4.38464H7.67123L5.69863 6.57642H2.19178C1.64384 6.57642 1.09589 6.7956 0.657534 7.23396C0.219178 7.67232 0 8.11067 0 8.65862V15.234V21.8093C0 22.3572 0.219178 22.9052 0.657534 23.3435C1.09589 23.7819 1.64384 24.0011 2.19178 24.0011H19.726C20.274 24.0011 20.8219 23.7819 21.2603 23.3435C21.6986 22.9052 21.9178 22.3572 21.9178 21.8093V15.234V10.5216C21.2603 10.7408 20.4932 10.96 19.726 10.96C16.1096 10.96 13.1507 8.00108 13.1507 4.38464ZM10.9589 20.4942C8.21918 20.4942 6.0274 18.3025 6.0274 15.5627C6.0274 12.823 8.21918 10.6312 10.9589 10.6312C13.6986 10.6312 15.8904 12.823 15.8904 15.5627C15.8904 18.3025 13.6986 20.4942 10.9589 20.4942Z"
    />
    <path
      d="M19.7263 0C17.3154 0 15.3428 1.9726 15.3428 4.38356C15.3428 6.79452 17.3154 8.76712 19.7263 8.76712C22.1373 8.76712 24.1099 6.79452 24.1099 4.38356C24.0003 1.9726 22.1373 0 19.7263 0ZM20.2743 7.34247C20.1647 7.45205 19.9455 7.56164 19.7263 7.56164C19.5072 7.56164 19.288 7.45205 19.1784 7.34247C19.0688 7.23288 18.9592 7.0137 18.9592 6.79452C18.9592 6.57534 19.0688 6.35616 19.1784 6.24658C19.288 6.13699 19.5072 6.0274 19.7263 6.0274C19.9455 6.0274 20.1647 6.13699 20.2743 6.24658C20.3839 6.35616 20.4935 6.57534 20.4935 6.79452C20.4935 7.12329 20.3839 7.23288 20.2743 7.34247ZM20.4935 5.36986H18.9592V1.53425H20.4935V5.36986Z"
    />
  </g>
  <defs>
    <clipPath id="clip0_13205_8000">
      <rect width="24" height="24" fill="white" />
    </clipPath>
  </defs>
</svg>