<?xml version="1.0" encoding="UTF-8"?>
<svg width="32px" height="32px" viewBox="0 0 32 32" version="1.1" xmlns="http://www.w3.org/2000/svg" xmlns:xlink="http://www.w3.org/1999/xlink">
  <path d="M19.83,0 L28,8.17 L28,32 L4,32 L4,0 L19.83,0 Z M8,28 L24,28 L24,9.83 L18.17,4 L8,4 L8,28 Z M10,16 L22,16 L22,18 L10,18 L10,16 Z M10,20 L22,20 L22,22 L10,22 L10,20 Z M10,24 L22,24 L22,26 L10,26 L10,24 Z M16.2520107,13.5817694 C16.0446817,13.7033071 15.7783752,13.8033955 15.4530831,13.8820375 C15.127791,13.9606796 14.7649707,14 14.3646113,14 C13.892759,14 13.4691708,13.9356575 13.0938338,13.8069705 C12.7184968,13.6782835 12.3914223,13.5013416 12.1126005,13.2761394 C11.8337788,13.0509372 11.5996435,12.7846307 11.4101877,12.4772118 C11.2207318,12.1697929 11.0795358,11.8373566 10.9865952,11.4798928 L10,11.4798928 L10.3646113,10.3753351 L10.847185,10.3753351 C10.8400357,10.3109916 10.8364611,10.2466491 10.8364611,10.1823056 L10.8364611,10 C10.8364611,9.87131303 10.8471849,9.74262799 10.8686327,9.61394102 L10.0321716,9.61394102 L10.4182306,8.49865952 L11.0294906,8.49865952 C11.143879,8.10544933 11.3118845,7.75514005 11.5335121,7.44772118 C11.7551396,7.14030231 12.0214462,6.87935764 12.3324397,6.66487936 C12.6434332,6.45040107 12.9901679,6.28597019 13.3726542,6.17158177 C13.7551404,6.05719335 14.1644303,6 14.6005362,6 C14.9151043,6 15.2332424,6.02859668 15.5549598,6.08579088 C15.8766772,6.14298509 16.1411965,6.22162595 16.3485255,6.32171582 L15.8230563,7.67292225 C15.6657722,7.59428021 15.4709574,7.53351228 15.2386059,7.49061662 C15.0062544,7.44772097 14.7756937,7.42627346 14.5469169,7.42627346 C14.3610357,7.42627346 14.1787319,7.44950826 14,7.49597855 C13.8212681,7.54244885 13.6550499,7.61036595 13.5013405,7.6997319 C13.347631,7.78909786 13.2100095,7.90169727 13.0884718,8.03753351 C12.9669342,8.17336976 12.873995,8.32707689 12.8096515,8.49865952 L15.6514745,8.49865952 L15.2761394,9.61394102 L12.5093834,9.61394102 C12.4950848,9.6782845 12.4879357,9.74083973 12.4879357,9.80160858 L12.4879357,10.1876676 C12.4879357,10.2555857 12.4915102,10.3181409 12.4986595,10.3753351 L15.0831099,10.3753351 L14.7184987,11.4798928 L12.7238606,11.4798928 C12.7739055,11.6300276 12.8525464,11.7712236 12.9597855,11.9034853 C13.0670247,12.0357469 13.1992843,12.1501336 13.3565684,12.2466488 C13.5138524,12.343164 13.6890071,12.4182303 13.8820375,12.4718499 C14.075068,12.5254694 14.2788193,12.5522788 14.4932976,12.5522788 C15.022344,12.5522788 15.4763162,12.4414667 15.8552279,12.2198391 L16.2520107,13.5817694 Z" id="Combined-Shape"></path>
</svg>
