<svg xmlns="http://www.w3.org/2000/svg" fill="#767676" width="32" height="32" viewBox="0 0 32 32">
    <path fill-rule="nonzero" d="M27.314 4.686A15.896 15.896 0 0 1 32 16c0 4.274-1.664 8.292-4.686 11.314A15.896 15.896 0 0 1 16 32a15.896 15.896 0 0 1-11.314-4.686A15.896 15.896 0 0 1 0 16c0-4.274 1.664-8.292 4.686-11.314A15.896 15.896 0 0 1 16 0c4.274 0 8.292 1.664 11.314 4.686zm-1.326 21.302A14.032 14.032 0 0 0 30.125 16c0-3.773-1.47-7.32-4.137-9.988A14.032 14.032 0 0 0 16 1.875c-3.773 0-7.32 1.47-9.988 4.137A14.032 14.032 0 0 0 1.875 16c0 3.773 1.47 7.32 4.137 9.988A14.032 14.032 0 0 0 16 30.125c3.773 0 7.32-1.47 9.988-4.137zM16 3.75c6.755 0 12.25 5.495 12.25 12.25S22.755 28.25 16 28.25 3.75 22.755 3.75 16 9.245 3.75 16 3.75zm0 22.625c5.72 0 10.375-4.654 10.375-10.375 0-5.72-4.654-10.375-10.375-10.375-5.72 0-10.375 4.654-10.375 10.375 0 5.72 4.654 10.375 10.375 10.375zm2.568-7.56h1.875a3.756 3.756 0 0 1-3.752 3.752h-.751a3.927 3.927 0 0 1-3.918-3.753H9.91v-1.875h2.108v-1.878H9.91v-1.875h2.112a3.927 3.927 0 0 1 3.918-3.753h.75a3.756 3.756 0 0 1 3.753 3.752h-1.875a1.88 1.88 0 0 0-1.877-1.877h-.751a2.05 2.05 0 0 0-2.04 1.878H16v1.875h-2.107v1.878H16v1.875h-2.1a2.05 2.05 0 0 0 2.04 1.878h.75a1.88 1.88 0 0 0 1.878-1.877z"/>
</svg>
