<?xml version="1.0" encoding="UTF-8"?>
<svg width="32px" height="32px" viewBox="0 0 32 32" version="1.1" xmlns="http://www.w3.org/2000/svg" xmlns:xlink="http://www.w3.org/1999/xlink">
  <title>belasting-icoon</title>
  <g id="Group" transform="translate(11.000000, 11.000000)">
      <path d="M7.8150134,9.4772118 C7.55585214,9.62913391 7.22296897,9.75424437 6.81635389,9.85254692 C6.40973881,9.95084946 5.9562134,10 5.45576408,10 C4.86594879,10 4.33646347,9.91957185 3.86729223,9.75871314 C3.39812098,9.59785442 2.98927788,9.37667701 2.64075067,9.09517426 C2.29222346,8.81367151 1.99955436,8.48078834 1.76273458,8.09651475 C1.52591481,7.71224115 1.34941971,7.29669571 1.23324397,6.84986595 L0,6.84986595 L0.455764075,5.4691689 L1.05898123,5.4691689 C1.05004464,5.38873954 1.04557641,5.30831139 1.04557641,5.22788204 L1.04557641,5 C1.04557641,4.83914129 1.0589811,4.67828499 1.08579088,4.51742627 L0.0402144772,4.51742627 L0.522788204,3.1233244 L1.28686327,3.1233244 C1.42984879,2.63181166 1.63985563,2.19392507 1.91689008,1.80965147 C2.19392453,1.42537788 2.52680771,1.09919705 2.9155496,0.831099196 C3.30429149,0.56300134 3.73770985,0.357462735 4.21581769,0.214477212 C4.69392554,0.071491689 5.20553794,-2.84217094e-14 5.75067024,-2.84217094e-14 C6.14388043,-2.84217094e-14 6.54155295,0.0357458445 6.94369973,0.107238606 C7.34584651,0.178731367 7.67649558,0.27703244 7.93565684,0.402144772 L7.27882038,2.09115282 C7.08221528,1.99285027 6.83869672,1.91689035 6.54825737,1.86327078 C6.25781803,1.80965121 5.96961716,1.78284182 5.68364611,1.78284182 C5.45129464,1.78284182 5.22341488,1.81188532 5,1.86997319 C4.77658512,1.92806106 4.5688124,2.01295744 4.3766756,2.12466488 C4.18453881,2.23637232 4.01251193,2.37712158 3.86058981,2.54691689 C3.70866769,2.7167122 3.5924937,2.90884611 3.51206434,3.1233244 L7.06434316,3.1233244 L6.59517426,4.51742627 L3.13672922,4.51742627 C3.11885603,4.59785563 3.10991957,4.67604966 3.10991957,4.75201072 L3.10991957,5.23458445 C3.10991957,5.3194821 3.1143878,5.39767614 3.1233244,5.4691689 L6.3538874,5.4691689 L5.89812332,6.84986595 L3.40482574,6.84986595 C3.4673819,7.03753445 3.56568298,7.21402956 3.6997319,7.37935657 C3.83378083,7.54468358 3.99910536,7.68766696 4.19571046,7.80831099 C4.39231555,7.92895503 4.61125885,8.02278787 4.85254692,8.08981233 C5.09383499,8.1568368 5.34852413,8.19034853 5.61662198,8.19034853 C6.27793003,8.19034853 6.84539531,8.05183338 7.31903485,7.77479893 L7.8150134,9.4772118 Z" id="Combined-Shape"></path>
  </g>
  <path d="M16,30 C23.7319865,30 30,23.7319865 30,16 C30,8.2680135 23.7319865,2 16,2 C8.2680135,2 2,8.2680135 2,16 C2,23.7319865 8.2680135,30 16,30 Z M16,26 C10.4771525,26 6,21.5228475 6,16 C6,10.4771525 10.4771525,6 16,6 C21.5228475,6 26,10.4771525 26,16 C26,21.5228475 21.5228475,26 16,26 Z" id="Oval" fill-rule="nonzero"></path>
</svg>
