<?xml version="1.0" encoding="UTF-8"?>
<svg width="40px" height="40px" viewBox="0 0 40 40" version="1.1" xmlns="http://www.w3.org/2000/svg" xmlns:xlink="http://www.w3.org/1999/xlink">
<title>betaversie-icoon</title>
    <polygon id="Rectangle" fill="#EC0000" transform="translate(24.577510, 15.422490) rotate(-315.000000) translate(-24.577510, -15.422490) " points="9.17410792 9.0151973 39.9146281 8.94891373 52.8617811 21.8960666 -3.70676143 21.8960666"></polygon>
    <path d="M14.0118708,20.4718708 L14.0118708,13.3918708 L16.7718708,13.3918708 C17.8418708,13.3918708 18.9418708,13.8818708 18.9418708,15.1718708 C18.9418708,15.9718708 18.4418708,16.5018708 17.7118708,16.7218708 L17.7118708,16.7418708 C18.6018708,16.8418708 19.2418708,17.5418708 19.2418708,18.4518708 C19.2418708,19.9918708 17.9018708,20.4718708 16.5618708,20.4718708 L14.0118708,20.4718708 Z M15.2718708,14.4718708 L15.2718708,16.2718708 L16.4218708,16.2718708 C17.2618708,16.2718708 17.6818708,15.9118708 17.6818708,15.3818708 C17.6818708,14.7718708 17.2618708,14.4718708 16.3118708,14.4718708 L15.2718708,14.4718708 Z M15.2718708,17.3518708 L15.2718708,19.3918708 L16.4318708,19.3918708 C17.0818708,19.3918708 17.9818708,19.2818708 17.9818708,18.3518708 C17.9818708,17.6118708 17.5018708,17.3518708 16.4818708,17.3518708 L15.2718708,17.3518708 Z M20.4918708,20.4718708 L20.4918708,13.3918708 L25.1818708,13.3918708 L25.1818708,14.5318708 L21.7518708,14.5318708 L21.7518708,16.2718708 L25.0018708,16.2718708 L25.0018708,17.4118708 L21.7518708,17.4118708 L21.7518708,19.3318708 L25.3618708,19.3318708 L25.3618708,20.4718708 L20.4918708,20.4718708 Z M28.0518708,20.4718708 L28.0518708,14.5318708 L25.8818708,14.5318708 L25.8818708,13.3918708 L31.4818708,13.3918708 L31.4818708,14.5318708 L29.3118708,14.5318708 L29.3118708,20.4718708 L28.0518708,20.4718708 Z M30.6318708,20.4718708 L33.7118708,13.3918708 L34.8018708,13.3918708 L37.8518708,20.4718708 L36.4118708,20.4718708 L35.7518708,18.8518708 L32.6818708,18.8518708 L32.0418708,20.4718708 L30.6318708,20.4718708 Z M33.1118708,17.7718708 L35.3118708,17.7718708 L34.2218708,14.8918708 L33.1118708,17.7718708 Z" fill="#FFFFFF" transform="translate(25.931871, 16.931871) rotate(-315.000000) translate(-25.931871, -16.931871) "></path>
</svg>
