<?xml version="1.0" encoding="UTF-8"?>
<svg width="32px" height="24px" viewBox="0 0 32 24" version="1.1" xmlns="http://www.w3.org/2000/svg" xmlns:xlink="http://www.w3.org/1999/xlink">
    <!-- Generator: sketchtool 55 (78076) - https://sketchapp.com -->
    <title>D0D8C2D6-D5D3-4133-8F42-0981438D783C</title>
    <desc>Created with sketchtool.</desc>
    <g id="V2-Dashboard" stroke="none" stroke-width="1" fill="none" fill-rule="evenodd">
        <g id="Dashboard-/-Truus-/-Dropdown" transform="translate(-360.000000, -186.000000)" fill="#000000">
            <g id="Blok-/-Mijn-Thema's" transform="translate(90.000000, 88.000000)">
                <g id="Group">
                    <g id="Icon-Gezondheid" transform="translate(270.000000, 94.000000)">
                        <path d="M0,4 L32,4 L32,27.04 L0,27.04 L0,4 Z M14,21 L6,21 L6,18.0193481 C6,17 7,16 8.00476074,16 L12,16 C13,16 14,17.0431519 14,18.0193481 L14,21 Z M10,15 C8.8954305,15 8,14.1045695 8,13 C8,11.8954305 8.8954305,11 10,11 C11.1045695,11 12,11.8954305 12,13 C12,14.1045695 11.1045695,15 10,15 Z M4,23 L28,23 L28,8 L4,8 L4,23 Z M16,11 L26,11 L26,13 L16,13 L16,11 Z M16,15 L26,15 L26,17 L16,17 L16,15 Z M16,19 L26,19 L26,21 L16,21 L16,19 Z" id="Shape"></path>
                    </g>
                </g>
            </g>
        </g>
    </g>
</svg>