<svg xmlns="http://www.w3.org/2000/svg" width="32" height="32" viewBox="0 0 32 32">
    <path fill-rule="nonzero" d="M15.936 18.04c-4.43 0-8.022-3.617-8.022-8.021 0-4.404 3.593-7.997 8.022-7.997s8.021 3.568 8.021 7.997a8.023 8.023 0 0 1-8.021 8.021zm0-13.926c-3.248 0-5.906 2.657-5.906 5.905s2.658 5.905 5.906 5.905c3.248 0 5.905-2.657 5.905-5.905s-2.657-5.905-5.905-5.905zM2.058 30.564A1.05 1.05 0 0 1 1 29.508c0-5.561 4.527-10.064 10.064-10.064h9.842c5.56 0 10.064 4.527 10.064 10.064a1.05 1.05 0 0 1-1.058 1.058H2.058zm9.006-9.005c-4.036 0-7.357 3.026-7.874 6.89h25.59a7.942 7.942 0 0 0-7.874-6.89h-9.842z"/>
</svg>
