<?xml version="1.0" encoding="UTF-8"?>
<svg width="32px" height="32px" viewBox="0 0 32 32" version="1.1" xmlns="http://www.w3.org/2000/svg" xmlns:xlink="http://www.w3.org/1999/xlink">
  <path d="M28,18 L28,30 L26,30 L26,28 L6,28 L6,30 L4,30 L4,18 L2,18 L2,16 L30,16 L30,18 L28,18 Z M26,20 L6,20 L6,24 L26,24 L26,20 Z M22,13.98 L10,13.98 L10,12.98 C10,9.98 11.69,8.98 14,8.98 L18,8.98 C20.3,8.98 22,9.98 22,12.98 L22,13.98 Z M16,7.98 C14.3486686,7.98 13.01,6.6413314 13.01,4.99 C13.01,3.3386686 14.3486686,2 16,2 C17.6513314,2 18.99,3.3386686 18.99,4.99 C18.99,6.6413314 17.6513314,7.98 16,7.98 Z" id="Combined-Shape"></path>
</svg>
