<?xml version="1.0" encoding="UTF-8"?>
<svg focusable="false" viewBox="0 0 32 27" version="1.1" xmlns="http://www.w3.org/2000/svg" xmlns:xlink="http://www.w3.org/1999/xlink">
<title>burgerzaken-icoon</title>
  <path d="M0,4 L32,4 L32,27.04 L0,27.04 L0,4 Z M14,21 L6,21 L6,18.0193481 C6,17 7,16 8.00476074,16 L12,16 C13,16 14,17.0431519 14,18.0193481 L14,21 Z M10,15 C8.8954305,15 8,14.1045695 8,13 C8,11.8954305 8.8954305,11 10,11 C11.1045695,11 12,11.8954305 12,13 C12,14.1045695 11.1045695,15 10,15 Z M4,23 L28,23 L28,8 L4,8 L4,23 Z M16,11 L26,11 L26,13 L16,13 L16,11 Z M16,15 L26,15 L26,17 L16,17 L16,15 Z M16,19 L26,19 L26,21 L16,21 L16,19 Z"></path>
</svg>
