<?xml version="1.0" encoding="UTF-8"?>
<svg width="32px" height="32px" viewBox="0 0 32 32" version="1.1" xmlns="http://www.w3.org/2000/svg" xmlns:xlink="http://www.w3.org/1999/xlink">
  <path d="M16.14925,26.325 C23.28925,19.86 28,15.585 28,11.25 C28,8.25 25.75,6 22.75,6 C20.43925,6 18.18925,7.485 17.40925,9.54 L14.605,9.54 C13.80925,7.485 11.55925,6 9.25,6 C6.25,6 4,8.25 4,11.25 C4,15.585 8.70925,19.86 15.84925,26.325 L16,26.475 L16.14925,26.325 Z M16.0141423,32.1318719 L13.0945823,29.2268371 C7.98098165,24.5958515 6.10438898,22.8055552 4.20798758,20.5894506 C1.44975457,17.3662234 0,14.4528292 0,11.25 C0,6.040861 4.040861,2 9.25,2 C11.7652129,2 14.2031964,3.01090182 16.0013765,4.685149 C17.79581,3.01052499 20.234068,2 22.75,2 C27.959139,2 32,6.040861 32,11.25 C32,14.4529894 30.5499028,17.3663313 27.7910297,20.5897226 C25.8955838,22.8043093 24.0230231,24.5907827 18.9113411,29.2201144 L16.0141423,32.1318719 Z M15,14.79992 L15,11.79992 L17,11.79992 L17,14.79992 L20,14.79992 L20,16.79992 L17,16.79992 L17,19.79992 L15,19.79992 L15,16.79992 L12,16.79992 L12,14.79992 L15,14.79992 Z" id="Combined-Shape"></path>
</svg>
