<?xml version="1.0" encoding="UTF-8"?>
<svg width="24px" height="24px" viewBox="0 0 24 24" version="1.1" xmlns="http://www.w3.org/2000/svg" xmlns:xlink="http://www.w3.org/1999/xlink">
    <title>Afbeelding icoon</title>
    <defs>
        <path d="M27.9999999,25.3333334 L27.9999999,6.66666663 C27.9999999,5.19999996 26.8,3.99999995 25.3333334,3.99999995 L6.66666663,3.99999995 C5.19999995,3.99999995 3.99999995,5.19999996 3.99999995,6.66666663 L3.99999995,25.3333334 C3.99999995,26.8 5.19999995,28 6.66666663,28 L25.3333334,28 C26.8,28 27.9999999,26.8 27.9999999,25.3333334 L27.9999999,25.3333334 Z M11.3333333,18 L14.6666666,22.0133334 L19.3333333,16 L25.3333334,24 L6.66666663,24 L11.3333333,18 L11.3333333,18 Z" id="path-1"></path>
    </defs>
    <g id="Page-1" stroke="none" stroke-width="1" fill="none" fill-rule="evenodd">
        <g id="photo" transform="translate(-4.000000, -4.000000)">
            <polygon id="Base" points="-6.66666817e-08 -6.6666568e-08 32.0000001 -6.6666568e-08 32.0000001 32.0000001 -6.66666817e-08 32.0000001"></polygon>
            <mask id="mask-2" fill="white">
                <use xlink:href="#path-1"></use>
            </mask>
            <g id="Icon" fill-rule="nonzero"></g>
            <rect id="↳-🎨-Color" fill="#B4B4B4" fill-rule="evenodd" mask="url(#mask-2)" x="0" y="0" width="32" height="32"></rect>
        </g>
    </g>
</svg>
