<?xml version="1.0" encoding="UTF-8"?>
<svg width="32px" height="32px" viewBox="0 0 32 32" version="1.1" xmlns="http://www.w3.org/2000/svg" xmlns:xlink="http://www.w3.org/1999/xlink">
  <path d="M21.0238037,30.9856958 C20.4865427,30.9856958 13.4786082,30.9857222 -2.84217094e-14,30.985775 L8.52651283e-14,25.0001001 L3.98706055,25.0001001 L6.55301511,22.5471764 C7.71185171,21.5471651 9.16480928,21.0001001 10.6648262,21.0001001 L20,21.0001001 C21.0764827,21.0001001 22,21.4542017 22,23.0001001 C22,24.5459986 20.8882453,25.0001001 20,25.0001001 L15,25.0001001 C13.6666667,25.0001001 13,25.6667668 13,27.0001001 C17.9197591,27.0001001 20.5864258,27.0001001 21,27.0001001 C21.6203613,27.0001001 21.8165644,26.7720963 21.9648986,26.6580944 C23.4811102,25.4928132 25.7554276,23.7448914 28.7878507,21.414329 C29.663648,20.7412369 30.9192709,20.9055618 31.592363,21.7813591 C32.2654551,22.6571563 32.1011301,23.9127792 31.2253329,24.5858713 L24.0381179,30.1095902 C23.4379709,30.5708319 22.608178,30.9706998 21.3089708,30.9789733 C21.2291319,30.9837518 21.1356168,30.9856958 21.0238037,30.9856958 Z M16,19 C11.0294373,19 7,14.9705627 7,10 C7,5.02943725 11.0294373,1 16,1 C20.9705627,1 25,5.02943725 25,10 C25,14.9705627 20.9705627,19 16,19 Z M16,17 C19.8659932,17 23,13.8659932 23,10 C23,6.13400675 19.8659932,3 16,3 C12.1340068,3 9,6.13400675 9,10 C9,13.8659932 12.1340068,17 16,17 Z M18.2520107,13.5817694 C18.0446817,13.7033071 17.7783752,13.8033955 17.4530831,13.8820375 C17.127791,13.9606796 16.7649707,14 16.3646113,14 C15.892759,14 15.4691708,13.9356575 15.0938338,13.8069705 C14.7184968,13.6782835 14.3914223,13.5013416 14.1126005,13.2761394 C13.8337788,13.0509372 13.5996435,12.7846307 13.4101877,12.4772118 C13.2207318,12.1697929 13.0795358,11.8373566 12.9865952,11.4798928 L12,11.4798928 L12.3646113,10.3753351 L12.847185,10.3753351 C12.8400357,10.3109916 12.8364611,10.2466491 12.8364611,10.1823056 L12.8364611,10 C12.8364611,9.87131303 12.8471849,9.74262799 12.8686327,9.61394102 L12.0321716,9.61394102 L12.4182306,8.49865952 L13.0294906,8.49865952 C13.143879,8.10544933 13.3118845,7.75514005 13.5335121,7.44772118 C13.7551396,7.14030231 14.0214462,6.87935764 14.3324397,6.66487936 C14.6434332,6.45040107 14.9901679,6.28597019 15.3726542,6.17158177 C15.7551404,6.05719335 16.1644303,6 16.6005362,6 C16.9151043,6 17.2332424,6.02859668 17.5549598,6.08579088 C17.8766772,6.14298509 18.1411965,6.22162595 18.3485255,6.32171582 L17.8230563,7.67292225 C17.6657722,7.59428021 17.4709574,7.53351228 17.2386059,7.49061662 C17.0062544,7.44772097 16.7756937,7.42627346 16.5469169,7.42627346 C16.3610357,7.42627346 16.1787319,7.44950826 16,7.49597855 C15.8212681,7.54244885 15.6550499,7.61036595 15.5013405,7.6997319 C15.347631,7.78909786 15.2100095,7.90169727 15.0884718,8.03753351 C14.9669342,8.17336976 14.873995,8.32707689 14.8096515,8.49865952 L17.6514745,8.49865952 L17.2761394,9.61394102 L14.5093834,9.61394102 C14.4950848,9.6782845 14.4879357,9.74083973 14.4879357,9.80160858 L14.4879357,10.1876676 C14.4879357,10.2555857 14.4915102,10.3181409 14.4986595,10.3753351 L17.0831099,10.3753351 L16.7184987,11.4798928 L14.7238606,11.4798928 C14.7739055,11.6300276 14.8525464,11.7712236 14.9597855,11.9034853 C15.0670247,12.0357469 15.1992843,12.1501336 15.3565684,12.2466488 C15.5138524,12.343164 15.6890071,12.4182303 15.8820375,12.4718499 C16.075068,12.5254694 16.2788193,12.5522788 16.4932976,12.5522788 C17.022344,12.5522788 17.4763162,12.4414667 17.8552279,12.2198391 L18.2520107,13.5817694 Z" id="Combined-Shape"></path>
</svg>
