<?xml version="1.0" encoding="UTF-8"?>
<svg width="32px" height="32px" viewBox="0 0 56 56" version="1.1" xmlns="http://www.w3.org/2000/svg" xmlns:xlink="http://www.w3.org/1999/xlink">
    <path d="M29.75,12.25 L29.75,14 L15.75,14 L15.75,12.25 L7,12.25 L7,17.5 L16.45,17.5 L38.5,17.5 L38.5,12.25 L29.75,12.25 Z M17.5,10.5 L28,10.5 L28,7 L17.5,7 L17.5,10.5 Z M-5.90638649e-13,43.75 L-5.90638649e-13,5.25 L14,5.25 L14,-2.79776202e-14 L31.5,-2.79776202e-14 L31.5,5.25 L45.5,5.25 L45.5,25.396205 C51.61726,27.5583461 56,33.3923512 56,40.25 C56,48.9484848 48.9484848,56 40.25,56 C32.7544441,56 26.4818308,50.7639604 24.8902787,43.75 L-5.90638649e-13,43.75 Z M38.7114367,24.574191 L38.5,24.5 L38.5,21 L35,21 L35,24.5 L31.5,24.5 L31.5,21 L14,21 L14,24.5 L10.5,24.5 L10.5,21 L7,21 L7,36.75 L24.8902792,36.75 C26.3716087,30.2217898 31.9080793,25.2337688 38.7114367,24.574191 L38.7114367,24.574191 Z M40.25,52.5 C47.0154882,52.5 52.5,47.0154882 52.5,40.25 C52.5,33.4845118 47.0154882,28 40.25,28 C33.4845118,28 28,33.4845118 28,40.25 C28,47.0154882 33.4845118,52.5 40.25,52.5 Z M44.1910189,46.5180965 C43.8281931,46.7307875 43.3621566,46.9059421 42.7928955,47.0435657 C42.2236344,47.1811892 41.5886988,47.25 40.8880698,47.25 C40.0623284,47.25 39.3210489,47.1374006 38.6642092,46.9121984 C38.0073694,46.6869962 37.4349891,46.3773478 36.947051,45.983244 C36.4591129,45.5891401 36.0493761,45.1231037 35.7178284,44.5851206 C35.3862808,44.0471376 35.1391876,43.465374 34.9765416,42.8398123 L33.25,42.8398123 L33.8880697,40.9068365 L34.7325737,40.9068365 C34.7200625,40.7942354 34.713807,40.681636 34.713807,40.5690349 L34.713807,40.25 C34.713807,40.0247978 34.7325736,39.799599 34.7701073,39.5743968 L33.3063003,39.5743968 L33.9819035,37.6226542 L35.0516086,37.6226542 C35.2517883,36.9345363 35.5457979,36.3214951 35.9336461,35.7835121 C36.3214944,35.245529 36.7875308,34.7888759 37.3317695,34.4135389 C37.8760081,34.0382019 38.4827938,33.7504478 39.1521448,33.5502681 C39.8214958,33.3500884 40.5377532,33.25 41.3009384,33.25 C41.8514327,33.25 42.4081742,33.3000442 42.9711797,33.400134 C43.5341852,33.5002239 43.9970939,33.6378454 44.3599197,33.8130027 L43.4403486,36.1776139 C43.1651015,36.0399904 42.8241755,35.9336465 42.4175604,35.8585791 C42.0109453,35.7835117 41.6074641,35.7459786 41.2071046,35.7459786 C40.8818126,35.7459786 40.5627809,35.7866395 40.2500001,35.8679625 C39.9372192,35.9492855 39.6463374,36.0681404 39.3773459,36.2245308 C39.1083544,36.3809212 38.8675168,36.5779702 38.6548258,36.8156836 C38.4421348,37.0533971 38.2794912,37.3223846 38.1668901,37.6226542 L43.1400805,37.6226542 L42.483244,39.5743968 L37.6414209,39.5743968 C37.6163985,39.6869979 37.6038874,39.7964695 37.6038874,39.902815 L37.6038874,40.5784182 C37.6038874,40.6972749 37.610143,40.8067466 37.6226542,40.9068365 L42.1454424,40.9068365 L41.5073727,42.8398123 L38.0167561,42.8398123 C38.1043347,43.1025482 38.2419562,43.3496414 38.4296247,43.5810992 C38.6172932,43.812557 38.8487476,44.0127337 39.1239947,44.1816354 C39.3992418,44.350537 39.7057624,44.481903 40.0435657,44.5757373 C40.381369,44.6695715 40.7379338,44.7164879 41.1132708,44.7164879 C42.0391021,44.7164879 42.8335535,44.5225667 43.4966489,44.1347185 L44.1910189,46.5180965 Z" id="Shape"></path>
</svg>
