<svg xmlns="http://www.w3.org/2000/svg" viewBox="0 0 154 70" fill="#EC0000">
  <path d="M45.742 16.583l-1.502.707-1.603.505-1.803.303-1.803.1h-.901l-.902-.1-.801-.202-1.603-.606-.701-.404-1.202-1.01-.601-.605-.4-.606-.802-1.413-.3-.808-.201-.909-.1-.908V8.81l.1-.909.2-.909.3-.807.401-.808.401-.707.4-.605.602-.606 1.202-1.01.701-.403 1.603-.606.801-.202.902-.101h.901l1.803.1.902.102.801.202.801.303.702.303 1.402 1.01-2.104 2.12-.5-.304-.401-.303-1.002-.504-1.202-.303-1.202-.101h-.6l-.602.1-1.002.304-1.001.504-.802.707-.6.909-.501 1.01-.301 1.11-.1 1.11.1 1.313.3 1.11.501 1.01.601.908.802.707 1.001.606.501.202.501.1.601.102h1.703l1.002-.202.901-.202.802-.404V10.93h-3.306V8.305h6.21v8.278zm10.919-5.35v-.606l-.4-1.01-.301-.303-.401-.302-.5-.303-.502-.101h-1.202l-.5.1-.501.304-.401.302-.3.303-.301.505-.2.505-.1.606h5.609zm-5.61 2.019l.1.605.301.505.2.404.401.404.4.303 1.002.404h1.102l.4-.101.802-.303.701-.505.501-.606 2.004 1.515-.501.605-.501.404-.601.404-.601.303-1.202.404-.601.1h-.701l-1.202-.1-1.102-.303-1.002-.505-.901-.707-.702-.807-.5-1.01-.2-.505-.201-.605-.1-.606v-1.313l.1-.605.2-.606.2-.505.501-1.01.702-.807.901-.707 1.002-.505 1.102-.302 1.202-.101 1.102.1 1.001.303.902.505.801.707.601.808.4 1.01.301 1.21.1 1.414v.707h-8.414zM61.87 6.79h2.604v1.716h.1l.4-.808.301-.303.4-.303 1.003-.403.6-.202h1.203l.6.1.501.203.401.201.802.606.3.505.2.404.3-.505.402-.404.8-.606 1.003-.403.5-.101h.601l1.002.1.902.303.7.404.502.606.4.707.3.807.101.808.1 1.01v6.562h-2.805v-7.27l-.4-.807-.2-.303-.802-.403H73.49l-.5.201-.401.303-.301.404-.2.404-.2.505-.1.505v6.46H68.98v-7.066l-.2-.808-.2-.303-.3-.303-.301-.201-.4-.101h-1.103l-.5.201-.802.606-.2.404-.2.505-.1.505-.1.605v5.957H61.87V6.79zm27.846 4.442l-.1-.606-.1-.505-.3-.505-.301-.303-.4-.302-.502-.303-.5-.101H86.31l-.501.1-.501.304-.4.302-.301.303-.4 1.01-.101.606h5.61zm-5.61 2.019l.101.605.2.505.601.808.401.303 1.002.404h1.102l.4-.101.802-.303.7-.505.502-.606 2.003 1.515-.5.605-.502.404-.6.404-.502.303-.6.202-.702.202-.6.1h-.602l-1.202-.1-1.202-.303-1.001-.505-.802-.707-.801-.807-.501-1.01-.2-.505-.2-.605-.1-.606v-1.313l.1-.605.2-.606.2-.505.5-1.01.802-.807.802-.707 1.001-.505 1.202-.302 1.202-.101 1.102.1 1.002.303.801.505.802.707.6.808.401 1.01.3 1.21.1 1.414v.707h-8.313zm18.632-2.02v-.605l-.4-1.01-.301-.303-.4-.302-.501-.303-.501-.101h-1.202l-.501.1-.501.304-.4.302-.301.303-.3.505-.1.505-.201.606h5.61zm-5.61 2.02l.201.605.2.505.2.404.401.404.401.303 1.002.404h1.102l.4-.101.802-.303.7-.505.502-.606 2.003 1.515-.5.605-.502.404-.6.404-.602.303-1.202.404-.6.1h-.602l-1.302-.1-1.102-.303-1.001-.505-.902-.707-.701-.807-.5-1.01-.201-.505-.2-.605-.1-.606v-1.313l.1-.605.2-.606.2-.505.5-1.01.702-.807.902-.707 1.001-.505 1.102-.302 1.302-.101 1.102.1.902.303.901.505.802.707.6.808.401 1.01.3 1.21.1 1.414v.707H97.13zm10.968-6.512h2.604v1.716h.1l.5-.707.301-.403.401-.303.4-.202.502-.202.6-.202h.602l1.001.101.902.303.7.404.502.504.4.707.3.707.201.807v7.774h-2.704V12.19l-.1-1.01v-.605l-.2-.505-.201-.403-.4-.404-.502-.202-.6-.101h-.602l-.6.202-.401.303-.3.303-.301.403-.2.505-.1.505v6.562h-2.805V6.74zm11.771 2.373V6.79h2.304V3.56h2.704v3.23h3.106v2.323h-3.106v4.845l.1.707.1.303.201.303.2.202.2.1.802.203.801-.101.301-.101.4-.202v2.322l-.5.202-.601.1-1.102.102-1.002-.101-.801-.101-.601-.303-.5-.505-.301-.505-.2-.706-.201-.808V9.113h-2.304zm18.03 2.12l-.1-.606-.1-.505-.2-.505-1.202-.908-.601-.101h-1.202l-.501.1-1.202.91-.401 1.009-.1.606h5.61zm-5.61 2.019l.101.605.2.505.601.808.501.303.4.202.602.202h1.002l.5-.101.802-.303.6-.505.602-.606 1.903 1.515-.5.605-1.003.808-.6.303-1.203.404-.7.1h-.602l-1.202-.1-1.102-.303-1.001-.505-.902-.707-.701-.807-.601-1.01-.2-.505-.3-1.817.1-.707.2-1.211.2-.505.601-1.01.701-.807.902-.707 1.001-.505 1.102-.302 1.202-.101 1.102.1 1.002.303.901.505.701.707.602.808.5 1.01.2 1.21.1 1.414v.707h-8.313zM40.234 35.866l-2.504-6.663-2.504 6.663h5.008zM36.627 25.77h2.504l6.912 16.254h-3.306l-1.502-3.735h-7.012l-1.402 3.735h-3.206l7.012-16.254zm10.818 5.25h2.605v1.716h.1l.5-.706.301-.404.4-.303.402-.202.5-.202 1.202-.202h.702l.5.101 1.002.404.4.303.301.303.3.504.301.404.3-.404.301-.504.4-.303.502-.303.4-.202.501-.202.601-.1h.601l1.002.1.801.303.702.404.5.606.401.706.3.808.2.909v7.47H61.77v-6.259l-.1-.909-.1-.504-.2-.404-.3-.303-.802-.404h-1.102l-.5.202-.402.303-.4.404-.2.404-.2.504-.101.505v6.461h-2.705v-6.562l-.1-.505v-.403l-.2-.404-.4-.606-.401-.202-.301-.1h-1.102l-.6.201-.401.303-.301.303-.3.404-.2.504-.101.505v6.562h-2.805V31.02zM73.29 34.05l-.401-.505-.5-.303-.602-.202-.6-.1-.602.1-.5.202-.201.101-.2.202-.1.303v.303l.2.605.3.202.401.101 1.002.303 1.001.202 1.102.404.501.202.5.303.402.504.2.505.2.606.1.707-.1.908-.3.707-.501.606-.601.505-.701.403-.802.202-.901.202h-.801l-1.203-.1-.6-.102-.602-.202-.5-.202-.501-.302-.4-.303-.502-.505 1.803-1.716 1.202 1.01.601.302.802.101.7-.1.602-.203.4-.404.2-.605-.1-.404-.2-.303-.3-.202-.4-.202-.902-.303-1.102-.202-1.102-.303-.5-.302-.402-.303-.4-.404-.3-.404-.201-.606v-.807l.1-.808.2-.707.501-.605.501-.505.701-.404.701-.303.802-.1.901-.102 1.102.101 1.002.303.5.202.502.303.8.807-1.902 1.616zm3.005-.707V31.02h2.304v-3.23h2.704v3.23h3.005v2.322h-3.005v4.846l.1.707.2.605.301.202.2.202h.401l.4.101.802-.1.3-.102.301-.202v2.322l-.4.202-.601.101-1.102.101-1.002-.1-.801-.102-.601-.303-.501-.504-.3-.505-.201-.707-.2-.808v-5.956h-2.304zm18.03 2.12l-.1-.606-.1-.504-.3-.505-.301-.303-.802-.606-.6-.1h-1.203l-.5.201-.401.202-.4.303-.402.404-.2.404-.2.504-.1.606h5.61zm-5.61 2.02l.1.605.201.505.3.505.301.302.501.303.4.202.602.202h1.001l.501-.1.701-.304.702-.504.6-.606 1.904 1.514-.501.606-1.002.808-.6.302-1.203.404-.701.101h-.601l-1.202-.1-1.102-.304-1.002-.504-.901-.707-.701-.808-.601-1.01-.2-.504-.301-1.817.1-.707.1-.606.1-.505.2-.605.602-1.01.701-.808.901-.706 1.002-.505 1.102-.303 1.202-.1 1.102.1 1.002.303.901.505.701.706.601.808.501 1.01.2 1.211.1 1.414v.706h-8.313zm10.919-6.462h2.705v1.716h.1l.2-.404.3-.403.401-.404.4-.303.402-.202.5-.1.501-.203h.501l1.002.202v2.625l-.701-.101-.601-.1-.902.1-.701.303-.5.303-.402.505-.2.403-.2.505-.1.707v5.855h-2.705V31.02zm13.122 8.783h1.503l.6-.202.602-.303.4-.504.4-.404.301-.606.2-1.211-.1-.707-.1-.606-.3-.505-.4-.504-.401-.404-.601-.404-.601-.202h-1.503l-.601.202-1.002.808-.4.504-.2.505-.201.606-.1.707.1.605.4 1.212.902.908.501.303.601.202zm4.007.606l-.4.505-.301.303-.501.403-.4.202-.502.202-.6.202-1.103.101-1.202-.1-1.101-.304-.902-.605-.801-.707-.601-.808-.401-1.01-.3-1.11-.1-1.11.1-1.212.3-1.11.5-1.01.602-.808.801-.706.902-.505 1.001-.404 1.102-.1 1.403.201 1.001.404.802.505.5.605h.1V24.66h2.705v17.364h-2.604V40.41zm12.42-3.332h-.6l-1.202.101h-.702l-.7.202-.602.202-.4.303-.401.404v.202l-.1.303.1.404.1.302.2.202.3.202.602.303.6.101.702-.1.601-.102.4-.202.401-.303.301-.403.2-.404.2-.505v-1.212zm.201 3.433h-.1l-.3.505-1.203.908-.5.202-.501.101-1.002.101h-.801l-.702-.202-.7-.303-.602-.302-.5-.505-.401-.606-.2-.606-.1-.807v-.606l.2-.606.2-.404.3-.504.3-.303.402-.303.5-.303.501-.202 1.102-.303 1.102-.202 1.202-.1h1.803v-.304l-.1-.504-.1-.404-.2-.303-.301-.303-.802-.404-.5-.1h-1.403l-.801.302-.701.303-.601.505-1.403-1.414.501-.504 1.002-.606.6-.303 1.303-.303 1.302-.1.802.1.7.101.602.101 1.002.505.7.707.602 1.211.2.808v7.773h-2.404V40.51zm17.73-9.793h.6l1.002.1.802.304.701.404.5.605.402.707.3.808.2.909v7.47h-2.704v-6.26l-.1-.908-.1-.504-.201-.404-.3-.303-.3-.202-.501-.202h-1.103l-.5.202-.401.303-.4.404-.2.404-.202.504-.1.505v6.461h-2.704v-6.562l-.1-.505v-.403l-.2-.404-.201-.303-.2-.303-.4-.202-.302-.1H139.3l-.602.201-.4.303-.3.303-.301.403-.2.505-.1.505v6.562h-2.705V31.02h2.604v1.716l.501-.706.3-.404.402-.303.4-.202.501-.202.6-.101.602-.1h.7l.502.1.5.202.501.202.401.303.3.303.301.505.3.403.301-.403.301-.505.4-.303.502-.303.4-.202.501-.202.6-.1z"/>
  <path d="M9.855 54.203l5.913-5.913 3.942 3.942-5.913 5.913 5.913 5.913L15.768 68l-5.913-5.913L3.942 68 0 64.058l5.913-5.913L0 52.232l3.942-3.942zM15.768 0l3.942 3.942-5.913 5.913 5.913 5.913-3.942 3.942-5.913-5.913-5.913 5.913L0 15.768l5.913-5.913L0 3.942 3.942 0l5.913 5.913zM9.855 29.565l5.913-5.913 3.942 3.942-5.913 5.913 5.913 5.913-3.942 3.942-5.913-5.913-5.913 5.913L0 39.42l5.913-5.913L0 27.594l3.942-3.942z"/>
</svg>
