<?xml version="1.0" encoding="UTF-8"?>
<svg width="32px" height="32px" viewBox="0 0 56 56" version="1.1" xmlns="http://www.w3.org/2000/svg" xmlns:xlink="http://www.w3.org/1999/xlink">
<title>zorg-en-ondersteuning-icoon</title>
    <path d="M28.2611875,46.0687507 C40.7561875,34.7550005 49,27.2737503 49,19.6875002 C49,14.4375001 45.0625,10.5 39.8125,10.5 C35.7686875,10.5 31.8311875,13.09875 30.4661875,16.6950001 L25.55875,16.6950001 C24.1661875,13.09875 20.2286875,10.5 16.1875,10.5 C10.9375,10.5 7,14.4375001 7,19.6875002 C7,27.2737503 15.2411875,34.7550005 27.7361875,46.0687507 L28,46.3312507 L28.2611875,46.0687507 Z M28.024749,56.2307763 L22.915519,51.1469653 C13.9667179,43.0427404 10.6826807,39.9097219 7.36397826,36.0315389 C2.53707051,30.3908911 0,25.2924513 0,19.6875001 C0,10.5715068 7.07150675,3.5 16.1875,3.5 C20.5891227,3.5 24.8555937,5.2690782 28.0024089,8.19901079 C31.1426675,5.26841875 35.4096191,3.5 39.8125,3.5 C48.9284932,3.5 56,10.5715068 56,19.6875001 C56,25.2927316 53.4623299,30.3910799 48.6343019,36.0320148 C45.3172717,39.9075415 42.0402905,43.03387 33.0948468,51.1352005 L28.024749,56.2307763 Z" id="Combined-Shape"></path>
</svg>
