<?xml version="1.0" encoding="UTF-8"?>
<svg width="46px" height="28px" viewBox="0 0 46 28" version="1.1" xmlns="http://www.w3.org/2000/svg" xmlns:xlink="http://www.w3.org/1999/xlink">
  <title>EHerkenning logo</title>
  <g transform="translate(25.134021, 0.000000)" fill="#DF0067">
    <rect x="0.0948453608" y="15.7443299" width="4.45773196" height="11.2865979"></rect>
    <rect x="0.0948453608" y="0.331958763" width="4.45773196" height="11.0020619"></rect>
    <polygon points="16.3134021 0.331958763 16.3134021 11.3814433 6.7814433 11.3814433 4.8371134 15.6969072 16.3134021 15.6969072 16.3134021 27.0309278 20.8185567 27.0309278 20.8185567 0.331958763"></polygon>
  </g>
  <path d="M7.72989691,27.0309278 C3.69896907,27.0309278 0.379381443,23.7113402 0.379381443,19.6804124 L0.379381443,19.6804124 L0.379381443,7.72989691 C0.379381443,3.65154639 3.65154639,0.379381443 7.72989691,0.379381443 L7.72989691,0.379381443 L21.1505155,0.379381443 L21.1505155,4.97938144 L7.72989691,4.97938144 C6.21237113,4.97938144 4.97938144,6.21237113 4.97938144,7.77731959 L4.97938144,7.77731959 L4.97938144,19.7278351 C4.97938144,21.2453608 6.21237113,22.5257732 7.72989691,22.5257732 L7.72989691,22.5257732 L21.1505155,22.5257732 L21.1505155,27.0309278 L7.72989691,27.0309278 L7.72989691,27.0309278 Z" fill="#133370"></path>
  <polygon fill="#133370" points="7.91958763 11.3814433 7.91958763 15.6969072 18.2103093 15.6969072 20.1546392 11.3814433"></polygon>
</svg>
