<?xml version="1.0" encoding="UTF-8"?>
<svg xmlns="http://www.w3.org/2000/svg" xmlns:xlink="http://www.w3.org/1999/xlink" width="30pt" height="30pt" viewBox="0 0 30 30" version="1.1">
<g id="surface2">
<path style=" stroke:none;fill-rule:nonzero;fill:rgb(46.27451%,46.27451%,46.27451%);fill-opacity:1;" d="M 15 30 C 23.285156 30 30 23.285156 30 15 C 30 6.714844 23.285156 0 15 0 C 6.714844 0 0 6.714844 0 15 C 0 23.285156 6.714844 30 15 30 Z M 15 30 "/>
<path style=" stroke:none;fill-rule:nonzero;fill:rgb(100%,100%,100%);fill-opacity:1;" d="M 15 30 C 23.285156 30 30 23.285156 30 15 C 30 6.714844 23.285156 0 15 0 C 6.714844 0 0 6.714844 0 15 C 0 23.285156 6.714844 30 15 30 Z M 15 28.125 C 7.75 28.125 1.875 22.25 1.875 15 C 1.875 7.75 7.75 1.875 15 1.875 C 22.25 1.875 28.125 7.75 28.125 15 C 28.125 22.25 22.25 28.125 15 28.125 Z M 15 28.125 "/>
<path style=" stroke:none;fill-rule:nonzero;fill:rgb(100%,100%,100%);fill-opacity:1;" d="M 16.824219 10.023438 C 19.992188 10.285156 22.5 12.875 22.5 16 L 22.5 22.5 L 7.5 22.5 L 7.5 16 C 7.5 12.875 10.007812 10.285156 13.175781 10.023438 L 11.636719 12.5 L 12.414062 13 L 14.484375 10 L 14.484375 14.25 L 15.515625 14.25 L 15.515625 10 L 17.585938 13 L 18.363281 12.5 Z M 16.441406 10 L 13.558594 10 L 12.117188 5 L 17.882812 5 Z M 16.441406 10 "/>
</g>
</svg>
