<?xml version="1.0" encoding="UTF-8"?>
<svg xmlns="http://www.w3.org/2000/svg" xmlns:xlink="http://www.w3.org/1999/xlink" width="30pt" height="30pt" viewBox="0 0 30 30" version="1.1">
<g id="surface2">
<path style=" stroke:none;fill-rule:nonzero;fill:rgb(100%,56.862745%,0%);fill-opacity:1;" d="M 15 30 C 23.285156 30 30 23.285156 30 15 C 30 6.714844 23.285156 0 15 0 C 6.714844 0 0 6.714844 0 15 C 0 23.285156 6.714844 30 15 30 Z M 15 30 "/>
<path style=" stroke:none;fill-rule:nonzero;fill:rgb(100%,100%,100%);fill-opacity:1;" d="M 11.25 21.25 L 11.25 17.5 L 18.75 17.5 L 18.75 21.25 Z M 17.953125 8.699219 C 18.457031 9.054688 18.75 9.589844 18.75 10.167969 L 18.75 11.359375 C 18.75 11.871094 18.546875 12.363281 18.183594 12.75 C 17.9375 13.019531 17.800781 13.355469 17.800781 13.699219 L 17.800781 14.628906 C 17.800781 14.980469 17.9375 15.316406 18.183594 15.582031 C 18.527344 15.945312 18.722656 16.402344 18.746094 16.875 L 11.253906 16.875 C 11.277344 16.402344 11.46875 15.945312 11.8125 15.582031 C 12.058594 15.316406 12.195312 14.980469 12.195312 14.628906 L 12.195312 13.699219 C 12.195312 13.355469 12.058594 13.019531 11.8125 12.75 C 11.449219 12.363281 11.25 11.871094 11.25 11.359375 L 11.25 10.167969 C 11.25 9.589844 11.539062 9.054688 12.042969 8.699219 L 12.859375 8.125 L 17.136719 8.125 Z M 11.25 22.273438 L 11.25 21.875 L 18.75 21.875 L 18.75 22.273438 C 18.75 22.746094 18.210938 23.125 17.554688 23.125 L 12.445312 23.125 C 11.785156 23.125 11.25 22.746094 11.25 22.273438 Z M 16.875 6.671875 L 16.875 7.5 L 13.125 7.5 L 13.125 6.671875 C 13.125 6.441406 13.277344 6.25 13.46875 6.25 L 16.53125 6.25 C 16.71875 6.25 16.875 6.441406 16.875 6.671875 Z M 16.875 6.671875 "/>
<path style=" stroke:none;fill-rule:nonzero;fill:rgb(100%,100%,100%);fill-opacity:1;" d="M 15 30 C 23.285156 30 30 23.285156 30 15 C 30 6.714844 23.285156 0 15 0 C 6.714844 0 0 6.714844 0 15 C 0 23.285156 6.714844 30 15 30 Z M 15 28.125 C 7.75 28.125 1.875 22.25 1.875 15 C 1.875 7.75 7.75 1.875 15 1.875 C 22.25 1.875 28.125 7.75 28.125 15 C 28.125 22.25 22.25 28.125 15 28.125 Z M 15 28.125 "/>
</g>
</svg>
