<?xml version="1.0" encoding="UTF-8"?>
<svg xmlns="http://www.w3.org/2000/svg" xmlns:xlink="http://www.w3.org/1999/xlink" width="30pt" height="30pt" viewBox="0 0 30 30" version="1.1">
<g id="surface2">
<path style=" stroke:none;fill-rule:nonzero;fill:rgb(100%,90.196078%,0%);fill-opacity:1;" d="M 15 30 C 23.285156 30 30 23.285156 30 15 C 30 6.714844 23.285156 0 15 0 C 6.714844 0 0 6.714844 0 15 C 0 23.285156 6.714844 30 15 30 Z M 15 30 "/>
<path style=" stroke:none;fill-rule:nonzero;fill:rgb(19.607843%,19.607843%,19.607843%);fill-opacity:1;" d="M 14.046875 5 L 15.953125 5 L 15.953125 6.234375 L 14.046875 6.234375 Z M 16.261719 11.242188 C 17.757812 11.660156 18.753906 12.777344 18.75 14.027344 L 18.75 15.226562 L 15.023438 15.226562 C 14.773438 15.226562 14.550781 15.371094 14.550781 15.5625 L 14.550781 21.871094 C 14.5625 22.074219 14.769531 22.234375 15.023438 22.238281 L 18.75 22.238281 L 18.75 24.15625 C 18.753906 24.230469 18.703125 24.296875 18.621094 24.332031 C 16.34375 25.222656 13.671875 25.222656 11.398438 24.332031 C 11.308594 24.300781 11.253906 24.230469 11.25 24.15625 L 11.25 14.027344 C 11.25 12.773438 12.253906 11.660156 13.75 11.242188 C 13.929688 11.191406 14.046875 11.058594 14.046875 10.90625 L 14.046875 6.941406 L 15.953125 6.941406 L 15.953125 10.90625 C 15.957031 11.058594 16.078125 11.191406 16.261719 11.242188 Z M 15.449219 15.933594 L 18.75 15.933594 L 18.75 21.53125 L 15.449219 21.53125 Z M 15.449219 15.933594 "/>
<path style=" stroke:none;fill-rule:nonzero;fill:rgb(100%,100%,100%);fill-opacity:1;" d="M 15 30 C 23.285156 30 30 23.285156 30 15 C 30 6.714844 23.285156 0 15 0 C 6.714844 0 0 6.714844 0 15 C 0 23.285156 6.714844 30 15 30 Z M 15 28.125 C 7.75 28.125 1.875 22.25 1.875 15 C 1.875 7.75 7.75 1.875 15 1.875 C 22.25 1.875 28.125 7.75 28.125 15 C 28.125 22.25 22.25 28.125 15 28.125 Z M 15 28.125 "/>
</g>
</svg>
