<?xml version="1.0" encoding="UTF-8"?>
<svg xmlns="http://www.w3.org/2000/svg" xmlns:xlink="http://www.w3.org/1999/xlink" width="30pt" height="30pt" viewBox="0 0 30 30" version="1.1">
<g id="surface2">
<path style=" stroke:none;fill-rule:nonzero;fill:rgb(0%,62.745098%,23.529412%);fill-opacity:1;" d="M 15 30 C 23.285156 30 30 23.285156 30 15 C 30 6.714844 23.285156 0 15 0 C 6.714844 0 0 6.714844 0 15 C 0 23.285156 6.714844 30 15 30 Z M 15 30 "/>
<path style=" stroke:none;fill-rule:nonzero;fill:rgb(100%,100%,100%);fill-opacity:1;" d="M 15 30 C 23.285156 30 30 23.285156 30 15 C 30 6.714844 23.285156 0 15 0 C 6.714844 0 0 6.714844 0 15 C 0 23.285156 6.714844 30 15 30 Z M 15 28.125 C 7.75 28.125 1.875 22.25 1.875 15 C 1.875 7.75 7.75 1.875 15 1.875 C 22.25 1.875 28.125 7.75 28.125 15 C 28.125 22.25 22.25 28.125 15 28.125 Z M 15 28.125 "/>
<path style=" stroke:none;fill-rule:nonzero;fill:rgb(100%,100%,100%);fill-opacity:1;" d="M 9.46875 20.714844 L 8.75 21.019531 L 9.355469 21.480469 C 10.1875 22.136719 11.261719 22.5 12.429688 22.5 C 12.789062 22.5 13.171875 22.460938 13.507812 22.382812 L 15.011719 22.058594 L 16.515625 22.382812 C 16.875 22.460938 17.234375 22.5 17.59375 22.5 C 18.738281 22.5 19.8125 22.136719 20.644531 21.480469 L 21.25 21.019531 L 20.53125 20.714844 C 19.207031 20.136719 18.378906 18.984375 18.378906 17.714844 C 18.378906 16.753906 18.871094 15.832031 19.722656 15.199219 L 20.195312 14.835938 L 19.722656 14.46875 C 18.871094 13.835938 18.378906 12.914062 18.378906 11.953125 C 18.378906 11.011719 18.847656 10.109375 19.65625 9.472656 L 20.53125 8.800781 L 19.363281 8.648438 C 19.074219 8.609375 18.757812 8.589844 18.445312 8.589844 C 17.523438 8.589844 16.960938 8.609375 16.066406 8.800781 L 15.929688 8.820312 L 15.929688 8.722656 C 15.929688 7.589844 16.402344 6.632812 17.59375 6.132812 L 16.066406 5 C 14.492188 5.671875 13.910156 7.207031 13.910156 8.707031 L 13.910156 8.800781 L 13.773438 8.78125 C 12.878906 8.589844 12.496094 8.589844 11.578125 8.589844 C 11.0625 8.589844 10.546875 8.648438 10.050781 8.761719 L 8.816406 9.03125 L 9.871094 9.628906 C 10.996094 10.261719 11.644531 11.300781 11.644531 12.433594 C 11.644531 13.296875 11.261719 14.125 10.566406 14.738281 L 10.207031 15.066406 L 10.566406 15.390625 C 11.261719 16.023438 11.644531 16.832031 11.644531 17.695312 C 11.644531 18.984375 10.816406 20.136719 9.46875 20.714844 Z M 9.46875 20.714844 "/>
</g>
</svg>
