<?xml version="1.0" encoding="UTF-8"?>
<svg xmlns="http://www.w3.org/2000/svg" xmlns:xlink="http://www.w3.org/1999/xlink" width="30pt" height="30pt" viewBox="0 0 30 30" version="1.1">
<g id="surface2">
<path style=" stroke:none;fill-rule:nonzero;fill:rgb(0%,61.568627%,92.54902%);fill-opacity:1;" d="M 15 30 C 23.285156 30 30 23.285156 30 15 C 30 6.714844 23.285156 0 15 0 C 6.714844 0 0 6.714844 0 15 C 0 23.285156 6.714844 30 15 30 Z M 15 30 "/>
<path style=" stroke:none;fill-rule:nonzero;fill:rgb(100%,100%,100%);fill-opacity:1;" d="M 15 30 C 23.285156 30 30 23.285156 30 15 C 30 6.714844 23.285156 0 15 0 C 6.714844 0 0 6.714844 0 15 C 0 23.285156 6.714844 30 15 30 Z M 15 28.125 C 7.75 28.125 1.875 22.25 1.875 15 C 1.875 7.75 7.75 1.875 15 1.875 C 22.25 1.875 28.125 7.75 28.125 15 C 28.125 22.25 22.25 28.125 15 28.125 Z M 15 28.125 "/>
<path style=" stroke:none;fill-rule:nonzero;fill:rgb(100%,100%,100%);fill-opacity:1;" d="M 12.03125 13.90625 L 18.59375 13.90625 L 18.59375 15 L 12.03125 15 Z M 17.40625 6.25 L 21.875 10.71875 L 21.875 23.75 L 8.75 23.75 L 8.75 6.25 Z M 10.9375 21.5625 L 19.6875 21.5625 L 19.6875 11.625 L 16.5 8.4375 L 10.9375 8.4375 Z M 12.03125 16.09375 L 18.59375 16.09375 L 18.59375 17.1875 L 12.03125 17.1875 Z M 12.03125 18.28125 L 18.59375 18.28125 L 18.59375 19.375 L 12.03125 19.375 Z M 12.03125 18.28125 "/>
</g>
</svg>
