<?xml version="1.0" standalone="no"?>
<!DOCTYPE svg PUBLIC "-//W3C//DTD SVG 20010904//EN"
 "http://www.w3.org/TR/2001/REC-SVG-20010904/DTD/svg10.dtd">
<svg version="1.0" xmlns="http://www.w3.org/2000/svg"
 width="270.000000pt" height="270.000000pt" viewBox="0 0 270.000000 270.000000"
 preserveAspectRatio="xMidYMid meet">
<metadata>
Created by potrace 1.11, written by Peter Selinger 2001-2013
</metadata>
<g transform="translate(0.000000,270.000000) scale(0.100000,-0.100000)"
fill="#000000" stroke="none">
<path d="M1025 2619 l-80 -80 118 -115 c64 -63 117 -118 117 -122 0 -3 -52
-59 -115 -122 l-115 -115 80 -80 80 -80 118 118 117 117 118 -117 117 -118 80
80 80 80 -115 115 c-63 63 -115 119 -115 124 0 4 53 59 118 121 l117 114 -83
83 -84 83 -112 -117 c-62 -65 -118 -118 -123 -118 -6 0 -60 52 -121 115 -61
63 -112 115 -114 115 -2 0 -39 -36 -83 -81z"/>
<path d="M1027 1663 l-77 -78 117 -117 118 -118 -120 -120 -120 -120 81 -80
80 -81 120 122 119 121 118 -123 117 -124 82 83 83 82 -120 120 -120 120 118
118 117 117 -80 80 -80 80 -118 -118 -117 -117 -115 115 c-63 63 -117 115
-120 115 -3 0 -40 -35 -83 -77z"/>
<path d="M1027 712 l-77 -77 115 -115 c63 -63 115 -118 115 -121 0 -4 -53 -59
-117 -123 l-118 -115 82 -82 81 -82 112 116 c62 65 117 117 123 117 5 0 61
-53 123 -118 l112 -117 84 83 83 83 -117 114 c-65 62 -118 117 -118 121 0 5
52 61 115 124 l115 115 -80 80 -80 80 -118 -118 -117 -117 -115 115 c-63 63
-117 115 -120 115 -3 0 -40 -35 -83 -78z"/>
</g>
</svg>
