<?xml version="1.0" encoding="UTF-8"?>
<svg width="32px" height="28px" viewBox="0 0 32 28" version="1.1" xmlns="http://www.w3.org/2000/svg"
  xmlns:xlink="http://www.w3.org/1999/xlink" aria-label="Subsidie icoon">
  <g stroke-width="1">
    <path
      d="M22.5,19.5 L31,28 L1,28 L9.5,19.5 L16,26 L22.5,19.5 Z M0,10 L8,18 L0,26 L0,10 Z M32,10 L32,26 L24,18 L32,10 Z M24,-4.8985872e-16 L24,15 L16,23 L8,15 L8,4.8985872e-16 L24,-4.8985872e-16 Z M17.7506702,4 C17.2055379,4 16.6939255,4.07149169 16.2158177,4.21447721 C15.7377099,4.35746273 15.3042915,4.56300134 14.9155496,4.8310992 C14.5268077,5.09919705 14.1939245,5.42537788 13.9168901,5.80965147 C13.6398556,6.19392507 13.4298488,6.63181166 13.2868633,7.1233244 L13.2868633,7.1233244 L12.5227882,7.1233244 L12.0402145,8.51742627 L13.0857909,8.51742627 C13.0589811,8.67828499 13.0455764,8.83914129 13.0455764,9 L13.0455764,9 L13.0455764,9.22788204 C13.0455764,9.30831139 13.0500446,9.38873954 13.0589812,9.4691689 L13.0589812,9.4691689 L12.4557641,9.4691689 L12,10.849866 L13.233244,10.849866 C13.3494197,11.2966957 13.5259148,11.7122412 13.7627346,12.0965147 C13.9995544,12.4807883 14.2922235,12.8136715 14.6407507,13.0951743 C14.9892779,13.376677 15.398121,13.5978544 15.8672922,13.7587131 C16.3364635,13.9195718 16.8659488,14 17.4557641,14 C17.9562134,14 18.4097388,13.9508495 18.8163539,13.8525469 C19.222969,13.7542444 19.5558521,13.6291339 19.8150134,13.4772118 L19.8150134,13.4772118 L19.3190349,11.7747989 C18.8453953,12.0518334 18.27793,12.1903485 17.616622,12.1903485 C17.3485241,12.1903485 17.093835,12.1568368 16.8525469,12.0898123 C16.6112588,12.0227879 16.3923155,11.928955 16.1957105,11.808311 C15.9991054,11.687667 15.8337808,11.5446836 15.6997319,11.3793566 C15.565683,11.2140296 15.4673819,11.0375345 15.4048257,10.849866 L15.4048257,10.849866 L17.8981233,10.849866 L18.3538874,9.4691689 L15.1233244,9.4691689 C15.1143878,9.39767614 15.1099196,9.3194821 15.1099196,9.23458445 L15.1099196,9.23458445 L15.1099196,8.75201072 C15.1099196,8.67604966 15.118856,8.59785563 15.1367292,8.51742627 L15.1367292,8.51742627 L18.5951743,8.51742627 L19.0643432,7.1233244 L15.5120643,7.1233244 C15.5924937,6.90884611 15.7086677,6.7167122 15.8605898,6.54691689 C16.0125119,6.37712158 16.1845388,6.23637232 16.3766756,6.12466488 C16.5688124,6.01295744 16.7765851,5.92806106 17,5.86997319 C17.2234149,5.81188532 17.4512946,5.78284182 17.6836461,5.78284182 C17.9696172,5.78284182 18.257818,5.80965121 18.5482574,5.86327078 C18.8386967,5.91689035 19.0822153,5.99285027 19.2788204,6.09115282 L19.2788204,6.09115282 L19.9356568,4.40214477 C19.6764956,4.27703244 19.3458465,4.17873137 18.9436997,4.10723861 C18.5415529,4.03574584 18.1438804,4 17.7506702,4 Z M6,9 L6,13 L2,9 L6,9 Z M30,9 L26,13 L26,9 L30,9 Z"></path>
  </g>
</svg>