<?xml version="1.0" encoding="UTF-8"?>
<svg width="30px" height="31px" viewBox="0 0 30 31" version="1.1" xmlns="http://www.w3.org/2000/svg" xmlns:xlink="http://www.w3.org/1999/xlink">
  <path d="M12,27 L1,27 L1,23 C3.209139,23 5,21.209139 5,19 L5,11 C5,6.581722 8.581722,3 13,3 L14,3 C14,1.8954305 14.8954305,1 16,1 C17.1045695,1 18,1.8954305 18,3 L19,3 C23.418278,3 27,6.581722 27,11 L27,19 C27,21.209139 28.790861,23 31,23 L31,27 L20,27 C20,29.209139 18.209139,31 16,31 C13.790861,31 12,29.209139 12,27 Z M14,27 C14,28.1045695 14.8954305,29 16,29 C17.1045695,29 18,28.1045695 18,27 L14,27 Z M9,11 L9,19 C9,20.4571486 8.61042286,21.8233065 7.92974244,23 L24.0702576,23 C23.3895771,21.8233065 23,20.4571486 23,19 L23,11 C23,8.790861 21.209139,7 19,7 L13,7 C10.790861,7 9,8.790861 9,11 Z" id="Shape"></path>
</svg>