<?xml version="1.0" encoding="UTF-8"?>
<svg viewBox="0 0 30 30" version="1.1" xmlns="http://www.w3.org/2000/svg" xmlns:xlink="http://www.w3.org/1999/xlink">
    <path d="M15,30 C23.2842712,30 30,23.2842712 30,15 C30,6.71572875 23.2842712,0 15,0 C6.71572875,0 0,6.71572875 0,15 C0,23.2842712 6.71572875,30 15,30 Z" fill="#EC0000"/>
    <path d="M15,30 C23.2842712,30 30,23.2842712 30,15 C30,6.71572875 23.2842712,0 15,0 C6.71572875,0 0,6.71572875 0,15 C0,23.2842712 6.71572875,30 15,30 Z M15,28.125 C7.75126266,28.125 1.875,22.2487373 1.875,15 C1.875,7.75126266 7.75126266,1.875 15,1.875 C22.2487373,1.875 28.125,7.75126266 28.125,15 C28.125,22.2487373 22.2487373,28.125 15,28.125 Z" id="Oval" fill="#FFFFFF" fill-rule="nonzero"/>
    <polygon fill="#FFFFFF" fill-rule="nonzero" points="15 7 6 14.5 9.00000001 14.5 9.00000001 22 13.5 22 13.5 17.5 16.5 17.5 16.5 22 21 22 21 14.5 24 14.5"/>
</svg>