<?xml version="1.0" encoding="UTF-8"?>
<svg width="32px" height="32px" viewBox="0 0 32 32" version="1.1" xmlns="http://www.w3.org/2000/svg" xmlns:xlink="http://www.w3.org/1999/xlink">
  <title>inkomen-iconn</title>
  <path d="M19,2 C21.209139,2 23,3.790861 23,6 C23,6.7290322 22.8049665,7.41251188 22.4642293,8.00110922 L26,8 L26,10 L24,10 L24,12 C28.3349143,12 31.8645429,15.4478378 31.9961932,19.7508207 L32,20 L32,24 C32,28.418278 28.418278,32 24,32 L8,32 L7.999,31.998 L8,32 C3.581722,32 0,28.418278 0,24 L0.002,24 L0,24 L0,20 C0,15.581722 3.581722,12 8,12 L8,10 L6,10 L6,8 L9.53577067,8.00110922 C9.1950335,7.41251188 9,6.7290322 9,6 C9,3.790861 10.790861,2 13,2 C14.1952121,2 15.2679883,2.52421057 16.0009561,3.35525927 C16.7320117,2.52421057 17.8047879,2 19,2 Z M12,12 L11.9951047,12.1996403 C11.8910789,14.3160315 10.1421954,16 8,16 C5.790861,16 4,17.790861 4,20 L4,24.04 L4.00489531,24.1996403 C4.10892112,26.3160315 5.85780461,28 8,28 L24,28 C26.209139,28 28,26.209139 28,24 L28,20 C28,17.790861 26.209139,16 24,16 C21.7911957,16 20.0005427,14.2096816 20,12.0010041 L12,12 Z M16.6005362,17 C16.9151043,17 17.2332424,17.0285967 17.5549598,17.0857909 C17.8766772,17.1429851 18.1411965,17.221626 18.3485255,17.3217158 L17.8230563,18.6729223 C17.6657722,18.5942802 17.4709574,18.5335123 17.2386059,18.4906166 C17.0062544,18.447721 16.7756937,18.4262735 16.5469169,18.4262735 C16.3610357,18.4262735 16.1787319,18.4495083 16,18.4959786 C15.8212681,18.5424488 15.6550499,18.610366 15.5013405,18.6997319 C15.347631,18.7890979 15.2100095,18.9016973 15.0884718,19.0375335 C14.9669342,19.1733698 14.873995,19.3270769 14.8096515,19.4986595 L17.6514745,19.4986595 L17.2761394,20.613941 L14.5093834,20.613941 C14.4950848,20.6782845 14.4879357,20.7408397 14.4879357,20.8016086 L14.4879357,21.1876676 C14.4879357,21.2555857 14.4915102,21.3181409 14.4986595,21.3753351 L17.0831099,21.3753351 L16.7184987,22.4798928 L14.7238606,22.4798928 C14.7739055,22.6300276 14.8525464,22.7712236 14.9597855,22.9034853 C15.0670247,23.0357469 15.1992843,23.1501336 15.3565684,23.2466488 C15.5138524,23.343164 15.6890071,23.4182303 15.8820375,23.4718499 C16.075068,23.5254694 16.2788193,23.5522788 16.4932976,23.5522788 C17.022344,23.5522788 17.4763162,23.4414667 17.8552279,23.2198391 L18.2520107,24.5817694 C18.0446817,24.7033071 17.7783752,24.8033955 17.4530831,24.8820375 C17.127791,24.9606796 16.7649707,25 16.3646113,25 C15.892759,25 15.4691708,24.9356575 15.0938338,24.8069705 C14.7184968,24.6782835 14.3914223,24.5013416 14.1126005,24.2761394 C13.8337788,24.0509372 13.5996435,23.7846307 13.4101877,23.4772118 C13.2207318,23.1697929 13.0795358,22.8373566 12.9865952,22.4798928 L12,22.4798928 L12.3646113,21.3753351 L12.847185,21.3753351 C12.8400357,21.3109916 12.8364611,21.2466491 12.8364611,21.1823056 L12.8364611,21 C12.8364611,20.871313 12.8471849,20.742628 12.8686327,20.613941 L12.0321716,20.613941 L12.4182306,19.4986595 L13.0294906,19.4986595 C13.143879,19.1054493 13.3118845,18.7551401 13.5335121,18.4477212 C13.7551396,18.1403023 14.0214462,17.8793576 14.3324397,17.6648794 C14.6434332,17.4504011 14.9901679,17.2859702 15.3726542,17.1715818 C15.7551404,17.0571934 16.1644303,17 16.6005362,17 Z M13,4 C11.8954305,4 11,4.8954305 11,6 C11,7.1045695 11.8954305,8 13,8 C14.1045695,8 15,7.1045695 15,6 C15,4.8954305 14.1045695,4 13,4 Z M19,4 C17.8954305,4 17,4.8954305 17,6 C17,7.1045695 17.8954305,8 19,8 C20.1045695,8 21,7.1045695 21,6 C21,4.8954305 20.1045695,4 19,4 Z" id="Shape"></path>
</svg>
