<?xml version="1.0" encoding="UTF-8"?>
<svg width="30px" height="30px" viewBox="0 0 30 30" version="1.1" xmlns="http://www.w3.org/2000/svg" xmlns:xlink="http://www.w3.org/1999/xlink">
    <title>Mijn gegevens icoon</title>
    <path d="M15,0 C18.9782473,0 22.793556,1.58035261 25.6066017,4.39339828 C28.4196474,7.20644396 30,11.0217527 30,15 C30,23.2842712 23.2842712,30 15,30 C6.71572875,30 0,23.2842712 0,15 C0,6.71572875 6.71572875,0 15,0 Z M15,4 C8.92486775,4 4,8.92486775 4,15 C4,21.0751322 8.92486775,26 15,26 C21.0751322,26 26,21.0751322 26,15 C26,8.92486775 21.0751322,4 15,4 Z M15,16 C17.2135009,16 21.0684044,16.9513859 22.9315561,18.731182 C21.4114702,21.8683108 18.4297823,24 15,24 C11.5698561,24 8.58790108,21.8678613 7.06907756,18.7312979 C8.92677829,16.9511554 12.7756454,16 15,16 Z M15,6 C17.209139,6 19,7.790861 19,10 C19,12.209139 17.209139,14 15,14 C12.790861,14 11,12.209139 11,10 C11,7.790861 12.790861,6 15,6 Z" id="Combined-Shape"></path>
</svg>
