<?xml version="1.0" encoding="UTF-8"?>
<svg width="100px" height="100px" viewBox="0 0 100 100" version="1.1" xmlns="http://www.w3.org/2000/svg" xmlns:xlink="http://www.w3.org/1999/xlink" style="background: #FFFFFF;">

    <g stroke="none" stroke-width="1" fill="none" fill-rule="evenodd">
        <rect fill="#FFFFFF" x="0" y="0" width="100" height="100"></rect>
        <path d="M58.4375,95 L41.5625,95 L41.5625,92.1875 L36.013031,92.1875 L36.013031,83.75 L30.4079437,83.75 C30.3484344,78.125 30.3186798,73.4375 30.3186798,69.6875 C30.3186798,64.0625 21.875,58.4375 21.875,47.1875 C21.875,32.0683132 34.2020098,21.875 49.9999999,21.875 C65.9316293,21.875 78.127914,32.0378725 78.125,47.189664 C78.1228359,58.4375 69.6875,64.0625 69.6875,69.6875 C69.6875,73.4375 69.6875,78.125 69.6875,83.75 L64.0625,83.75 L64.0625,92.1875 L58.4375,92.1875 L58.4375,95 Z M58.6067581,69.6875 C58.6067581,61.7904304 66.8733767,55.625 66.875,47.1875 C66.8766227,38.75 60.125,33.125 49.9999999,33.125 C40.0585499,33.125 33.125,38.75 33.125,47.1875 C33.125,55.625 41.6579437,61.7463235 41.6579437,69.6875 L41.6579437,75.4845047 L58.6067581,75.4845047 L58.6067581,69.6875 Z M41.5625,80.9375 L41.5625,86.5625 L58.4375,86.5625 L58.4375,80.9375 L41.5625,80.9375 Z M83.75,44.375 L95,44.375 L95,50 L83.75,50 L83.75,44.375 Z M5,44.375 L16.25,44.375 L16.25,50 L5,50 L5,44.375 Z M47.1875,5 L52.8125,5 L52.8125,16.25 L47.1875,16.25 L47.1875,5 Z M80.1137378,15.9087865 L84.0912135,19.8862622 L76.1362622,27.8412135 L72.1587865,23.8637378 L80.1137378,15.9087865 Z M15.9087865,19.8862622 L19.8862622,15.9087865 L27.8412135,23.8637378 L23.8637378,27.8412135 L15.9087865,19.8862622 Z" id="Combined-Shape" fill="#EC0000" fill-rule="nonzero"></path>
    </g>
</svg>
