<svg width="32" height="32" viewBox="0 0 32 32" fill="none" xmlns="http://www.w3.org/2000/svg">
  <path fill-rule="evenodd" clip-rule="evenodd"
    d="M0 9C0 13.9706 4.02945 18 9 18V32H32V4H16.4845C14.8699 1.58801 12.1204 0 9 0C4.02945 0 0 4.02942 0 9ZM18 9C18 9.68738 17.9229 10.3568 17.777 11H26V13H17.0645C16.7026 13.7281 16.2451 14.4003 15.7083 15H26V17H15V15.7083C14.4003 16.2451 13.7281 16.7026 13 17.0645V28H28V8H17.9451C17.9814 8.32831 18 8.66199 18 9ZM15 19H26V21H15V19ZM26 23H15V25H26V23ZM9 3C7.34315 3 6 4.34315 6 6V8H5V14H13V8H12V6C12 4.34315 10.6569 3 9 3ZM9 5C8.44772 5 8 5.44772 8 6V8H10V6C10 5.44772 9.55228 5 9 5Z" />
</svg>