<?xml version="1.0" encoding="UTF-8"?>
<svg width="32px" height="32px" viewBox="0 0 32 32" version="1.1" xmlns="http://www.w3.org/2000/svg"
  aria-label="Erfpacht icoon"
  xmlns:xlink="http://www.w3.org/1999/xlink">
  <path
    d="M9,0 C12.1204161,0 14.8699283,1.58802851 16.484451,4 L32,4 L32,32 L9,32 L9,18 C4.02943725,18 0,13.9705627 0,9 C0,4.02943725 4.02943725,0 9,0 Z M28,8 L17.9450712,8 C17.9813667,8.32833385 18,8.6619909 18,9 C18,9.68738796 17.9229386,10.3567773 17.7769836,11 L26,11 L26,13 L17.0644804,13 C16.7026429,13.7281052 16.2451031,14.4002581 15.7083195,15 L26,15 L26,17 L15,17 L15,15.7083195 C14.4002581,16.2451031 13.7281052,16.7026429 13,17.0644804 L13,28 L28,28 L28,8 Z M26,23 L26,25 L15,25 L15,23 L26,23 Z M26,19 L26,21 L15,21 L15,19 L26,19 Z M9,4 L2.99194336,9 L4.99169922,9 L5,14 L8,14 L8,11.0472412 L10,11.0472412 L10,14 L13,14 L13,9 L15,9 L9,4 Z"></path>
</svg>