<svg viewBox="0 0 24 24" fill="none" xmlns="http://www.w3.org/2000/svg">
  <g clip-path="url(#clip0_17050_1622)">
    <path
      d="M4 24C2.93333 24 2 23.64 1.2 22.92C0.4 22.2 0 21.36 0 20.4V16.8H4V0L6 1.8L8 0L10 1.8L12 0L14 1.8L16 0L18 1.8L20 0L22 1.8L24 0V20.4C24 21.36 23.6 22.2 22.8 22.92C22 23.64 21.0667 24 20 24H4ZM20 21.6C20.4 21.6 20.6667 21.48 20.9333 21.24C21.2 21 21.3333 20.76 21.3333 20.4V3.6H6.66667V16.8H18.6667V20.4C18.6667 20.76 18.8 21 19.0667 21.24C19.3333 21.48 19.6 21.6 20 21.6ZM8 8.4V6H16V8.4H8ZM8 12V9.6H16V12H8ZM18.6667 8.4C18.2667 8.4 18 8.28 17.7333 8.04C17.4667 7.8 17.3333 7.56 17.3333 7.2C17.3333 6.84 17.4667 6.6 17.7333 6.36C18 6.12 18.2667 6 18.6667 6C19.0667 6 19.3333 6.12 19.6 6.36C19.8667 6.6 20 6.84 20 7.2C20 7.56 19.8667 7.8 19.6 8.04C19.3333 8.28 19.0667 8.4 18.6667 8.4ZM18.6667 12C18.2667 12 18 11.88 17.7333 11.64C17.4667 11.4 17.3333 11.16 17.3333 10.8C17.3333 10.44 17.4667 10.2 17.7333 9.96C18 9.72 18.2667 9.6 18.6667 9.6C19.0667 9.6 19.3333 9.72 19.6 9.96C19.8667 10.2 20 10.44 20 10.8C20 11.16 19.8667 11.4 19.6 11.64C19.3333 11.88 19.0667 12 18.6667 12ZM4 21.6H16V19.2H2.66667V20.4C2.66667 20.76 2.8 21 3.06667 21.24C3.33333 21.48 3.6 21.6 4 21.6Z" />
  </g>
  <defs>
    <clipPath id="clip0_17050_1622">
      <rect width="24" height="24" fill="white" />
    </clipPath>
  </defs>
</svg>