<?xml version="1.0" encoding="UTF-8"?>
<svg width="16px" height="16px" viewBox="0 0 16 16" version="1.1" xmlns="http://www.w3.org/2000/svg" xmlns:xlink="http://www.w3.org/1999/xlink">
    <title>Basketbal icoon</title>
    <g fill-rule="nonzero">
      <path d="M1.448,3.424 C0.536,4.72 0,6.296 0,8 C0,9.704 0.536,11.28 1.448,12.576 C3.384,11.96 4.8,10.144 4.8,8 C4.8,5.856 3.384,4.04 1.448,3.424 Z" id="Path"></path>
      <path d="M14.552,3.424 C12.616,4.04 11.2,5.856 11.2,8 C11.2,10.144 12.616,11.96 14.552,12.576 C15.464,11.28 16,9.704 16,8 C16,6.296 15.464,4.72 14.552,3.424 Z" id="Path"></path>
      <path d="M9.6,8 C9.6,5.376 11.176,3.128 13.432,2.136 C12.008,0.816 10.104,0 8,0 C5.896,0 3.992,0.816 2.568,2.136 C4.824,3.128 6.4,5.376 6.4,8 C6.4,10.624 4.824,12.872 2.568,13.864 C3.992,15.184 5.896,16 8,16 C10.104,16 12.008,15.184 13.432,13.864 C11.176,12.872 9.6,10.624 9.6,8 Z" id="Path"></path>
    </g>
</svg>
