<?xml version="1.0" encoding="UTF-8"?>
<svg width="16px" height="16px" viewBox="0 0 16 16" version="1.1" xmlns="http://www.w3.org/2000/svg" xmlns:xlink="http://www.w3.org/1999/xlink">
    <title>Bekendmaking</title>
    <path d="M6,0 C7.63573058,0 9.08800492,0.785469498 10.0002202,1.99980567 L16,2 L16,16 L6,16 L6,10 C3.23857625,10 1,7.76142375 1,5 C1,2.23857625 3.23857625,0 6,0 Z M15,14 L7,14 L7,15 L15,15 L15,14 Z M15,12 L7,12 L7,13 L15,13 L15,12 Z M15,10 L7,10 L7,11 L15,11 L15,10 Z M15,8 L9.99946494,8.00119948 C9.71493403,8.37976802 9.37790513,8.71663019 8.99918899,9.00097523 L15,9 L15,8 Z M8.77520752,3 L6,5.73779297 L4,3.73779297 L3,4.73779297 L6,7.73779297 L9.78649902,4 L8.77520752,3 Z M15,6 L10.8997409,6.0011864 C10.8290993,6.34875922 10.7224019,6.6832328 10.5837237,7.0005324 L15,7 L15,6 Z M12,3 L10.5841577,3.00046106 C10.7227573,3.31776918 10.8293772,3.65224406 10.8999437,3.99981203 L12,4 L12,3 Z"></path>
</svg>
