<?xml version="1.0" encoding="UTF-8"?>
<svg width="18px" height="14px" viewBox="0 0 22 18" version="1.1" xmlns="http://www.w3.org/2000/svg" xmlns:xlink="http://www.w3.org/1999/xlink">
    <title>Brood container</title>
        <g transform="translate(-5.000000, -6.000000)" fill="white" >
            <path d="M19.0589893,7.03552618 L20.8157264,7.50624246 C25.7177142,8.88064128 27.1587258,11.2301197 26.8859043,12.2483031 C26.6661749,13.0683444 26.1767907,13.4339938 25.6481618,13.7555727 L25.3281184,13.9465141 C24.739497,14.298914 24.1591489,14.6972863 23.8937499,15.6877688 L22.1141447,22.3293459 C21.9708863,22.8639935 21.4222927,23.1815338 20.8888266,23.038592 L11.2295683,20.4504015 C10.6961022,20.3074597 10.3797764,19.758165 10.5230348,19.2235174 L12.3025796,12.581924 C12.5300644,11.7329391 12.3396487,11.1449966 12.0705457,10.6168129 L11.9310073,10.356769 L11.7493123,10.0313872 C11.4522957,9.48857728 11.2113013,8.92722349 11.4310307,8.10718219 C11.7038521,7.08899877 14.1265439,5.77479654 19.0589893,7.03552618 Z M9.62597147,7.2121212 C9.57586757,7.33467694 9.53384034,7.46018626 9.49917901,7.5895441 C9.1546314,8.87541329 9.37650484,9.86147269 9.99479791,10.9914284 L10.1848096,11.3318554 C10.3979557,11.7149398 10.4311392,11.8035446 10.3878485,11.9958115 L8.59117841,18.7058969 C8.24605284,19.993923 8.79272006,21.3117764 9.85386334,22.0009722 L8,22 C7.44771525,22 7,21.5512932 7,20.9977853 L6.99993742,15 C6.99993742,12.9856491 4.99985888,12.9856491 4.99985888,10.0252234 C4.99985888,9.16171234 6.34206239,7.73291447 9.62597147,7.2121212 Z"></path>
        </g>
</svg>
