<?xml version="1.0" encoding="UTF-8"?>
<svg width="16px" height="16px" viewBox="0 0 16 16" version="1.1" xmlns="http://www.w3.org/2000/svg" xmlns:xlink="http://www.w3.org/1999/xlink">
  <title>Auto</title>
  <path d="M11,6.5 C11.5522847,6.5 12,6.94771525 12,7.5 C12,8.05228475 11.5522847,8.5 11,8.5 C10.4477153,8.5 10,8.05228475 10,7.5 C10,6.94771525 10.4477153,6.5 11,6.5 Z M3,6.5 C3.55228475,6.5 4,6.94771525 4,7.5 C4,8.05228475 3.55228475,8.5 3,8.5 C2.44771525,8.5 2,8.05228475 2,7.5 C2,6.94771525 2.44771525,6.5 3,6.5 Z M9.23212627,2.84217094e-14 L12.732,3.5 L14,3.5 L14,7.5 L13,7.5 C13,6.3954305 12.1045695,5.5 11,5.5 C9.9456382,5.5 9.08183488,6.31587779 9.00548574,7.35073766 L9,7.5 L5,7.5 C5,6.3954305 4.1045695,5.5 3,5.5 C1.9456382,5.5 1.08183488,6.31587779 1.00548574,7.35073766 L1,7.5 L0,7.5 L0,3.5 L1.267,3.5 L4.76712627,2.84217094e-14 L9.23212627,2.84217094e-14 Z M5.99912627,1 L5.18112627,1 L2.681,3.5 L5.999,3.5 L5.99912627,1 Z M8.81712627,1 L6.99912627,1 L6.999,3.5 L11.318,3.5 L8.81712627,1 Z"  fill="#FFFFFF"></path>
</svg>
