<?xml version="1.0" encoding="UTF-8"?>
<svg width="14px" height="14px" viewBox="0 0 14 14" version="1.1" xmlns="http://www.w3.org/2000/svg" xmlns:xlink="http://www.w3.org/1999/xlink">
    <title>Auto icoon</title>
    <g id="Icon/12/Car" stroke="none" stroke-width="1" fill="none" fill-rule="evenodd">
      <path d="M11,9.5 C11.5522847,9.5 12,9.94771525 12,10.5 C12,11.0522847 11.5522847,11.5 11,11.5 C10.4477153,11.5 10,11.0522847 10,10.5 C10,9.94771525 10.4477153,9.5 11,9.5 Z M3,9.5 C3.55228475,9.5 4,9.94771525 4,10.5 C4,11.0522847 3.55228475,11.5 3,11.5 C2.44771525,11.5 2,11.0522847 2,10.5 C2,9.94771525 2.44771525,9.5 3,9.5 Z M9.23212627,3 L12.732,6.5 L14,6.5 L14,10.5 L13,10.5 C13,9.3954305 12.1045695,8.5 11,8.5 C9.9456382,8.5 9.08183488,9.31587779 9.00548574,10.3507377 L9,10.5 L5,10.5 C5,9.3954305 4.1045695,8.5 3,8.5 C1.9456382,8.5 1.08183488,9.31587779 1.00548574,10.3507377 L1,10.5 L0,10.5 L0,6.5 L1.267,6.5 L4.76712627,3 L9.23212627,3 Z M5.99912627,4 L5.18112627,4 L2.681,6.5 L5.999,6.5 L5.99912627,4 Z M8.81712627,4 L6.99912627,4 L6.999,6.5 L11.318,6.5 L8.81712627,4 Z" id="Combined-Shape" fill="#000000"></path>
    </g>
</svg>
