<?xml version="1.0" encoding="UTF-8"?>
<svg width="28" height="28" viewBox="-8 -8 48 48" fill="none" xmlns="http://www.w3.org/2000/svg">
<g id="Name=Charging-Point">
<path id="Icon shape" fill-rule="evenodd" clip-rule="evenodd" d="M17 28V5H7V28H17ZM19 22.0005H24C24.4591 22.0005 24.998 21.4666 24.9975 21.0038C24.9969 20.4599 24.9968 18.459 24.9971 15H23V13H22V9H23V6H25V9H27V6H29V9H30V13H29V15H26.9971C26.9968 18.4579 26.9969 20.4588 26.9975 21.0016C26.9992 22.5746 25.5599 24.0005 24 24.0005H19V28H32V32H0V28H5V1H19V22.0005ZM13 11V15H16L11 21V17H8L13 11Z" fill="#FFFFFF"/>
</g>
</svg>
