<svg xmlns="http://www.w3.org/2000/svg" height="24" viewBox="0 0 24 24" width="24"><path d="m8 10.5c.83 0 1.5.67 1.5 1.5s-.67 1.5-1.5 1.5-1.5-.67-1.5-1.5.67-1.5 1.5-1.5m0-1.5c-1.66 0-3 1.34-3 3s1.34 3 3 3 3-1.34 3-3-1.34-3-3-3m8 1.5c.83 0 1.5.67 1.5 1.5s-.67 1.5-1.5 1.5-1.5-.67-1.5-1.5.67-1.5 1.5-1.5m0-1.5c-1.66 0-3 1.34-3 3s1.34 3 3 3 3-1.34 3-3-1.34-3-3-3m-1.88-.59-1.41-1.41 1.41-1.41-.71-.71-1.41 1.41-1.41-1.41-.71.71 1.41 1.41-1.41 1.41.71.71 1.41-1.41 1.41 1.41zm0 10-1.41-1.41 1.41-1.41-.71-.71-1.41 1.41-1.41-1.41-.71.71 1.41 1.41-1.41 1.41.71.71 1.41-1.41 1.41 1.41zm5.62-12.74.76-.74-1.43-1.43-.74.76c-1.73-1.41-3.93-2.26-6.33-2.26s-4.6.85-6.33 2.26l-.74-.76-1.43 1.43.76.74c-1.41 1.73-2.26 3.93-2.26 6.33 0 5.5 4.5 10 10 10s10-4.5 10-10c0-2.4-.85-4.6-2.26-6.33m-7.74 14.33c-4.41 0-8-3.59-8-8s3.59-8 8-8 8 3.59 8 8-3.59 8-8 8z"/></svg>
