<svg xmlns="http://www.w3.org/2000/svg" fill="#000000" width="800px" height="800px" viewBox="0 0 24 24">
<path d="M10.75 7.25C10.75 7.94036 10.1904 8.5 9.5 8.5C8.80964 8.5 8.25 7.94036 8.25 7.25C8.25 6.55964 8.80964 6 9.5 6C10.1904 6 10.75 6.55964 10.75 7.25Z"/>
<path d="M15.75 7.25C15.75 7.94036 15.1904 8.5 14.5 8.5C13.8096 8.5 13.25 7.94036 13.25 7.25C13.25 6.55964 13.8096 6 14.5 6C15.1904 6 15.75 6.55964 15.75 7.25Z"/>
<path d="M13.5 11.5C13.5 12.3284 12.8284 13 12 13C11.1716 13 10.5 12.3284 10.5 11.5C10.5 10.6716 11.1716 10 12 10C12.8284 10 13.5 10.6716 13.5 11.5Z"/>
<path d="M8.5 11.5C8.5 12.3284 7.82843 13 7 13C6.17157 13 5.5 12.3284 5.5 11.5C5.5 10.6716 6.17157 10 7 10C7.82843 10 8.5 10.6716 8.5 11.5Z"/>
<path d="M18.5 11.5C18.5 12.3284 17.8284 13 17 13C16.1716 13 15.5 12.3284 15.5 11.5C15.5 10.6716 16.1716 10 17 10C17.8284 10 18.5 10.6716 18.5 11.5Z"/>
<path d="M11 16C11 16.8284 10.3284 17.5 9.5 17.5C8.67157 17.5 8 16.8284 8 16C8 15.1716 8.67157 14.5 9.5 14.5C10.3284 14.5 11 15.1716 11 16Z"/>
<path d="M16 16C16 16.8284 15.3284 17.5 14.5 17.5C13.6716 17.5 13 16.8284 13 16C13 15.1716 13.6716 14.5 14.5 14.5C15.3284 14.5 16 15.1716 16 16Z"/>
<path fill-rule="evenodd" clip-rule="evenodd" d="M12 19.5C16.3032 19.5 20 15.7504 20 10.86C20 8.99332 19.4536 7.27778 18.535 5.87651C18.2057 5.37431 17.8291 4.91309 17.4132 4.5H6.58675C6.1709 4.91309 5.79426 5.37431 5.46503 5.87651C4.54641 7.27778 4 8.99332 4 10.86C4 15.7504 7.69679 19.5 12 19.5ZM5.81343 2.5H18.1866C18.9608 3.14952 19.6426 3.91818 20.2076 4.78C21.3374 6.50343 22 8.59938 22 10.86C22 16.7363 17.5228 21.5 12 21.5C6.47715 21.5 2 16.7363 2 10.86C2 8.59938 2.66259 6.50343 3.79241 4.78C4.35739 3.91818 5.03921 3.14952 5.81343 2.5Z"/>
</svg>
