<?xml version="1.0" encoding="UTF-8"?>
<svg width="16px" height="16px" viewBox="0 0 16 16" version="1.1" xmlns="http://www.w3.org/2000/svg" xmlns:xlink="http://www.w3.org/1999/xlink">
    <title>Algemeen-icoon</title>
    <path d="M16,3 L16,6 L13.0041122,6 C12.5161122,6 12,6.42410564 12,7 C12,7.57589436 12.024,8.192 11.904,8.76 C11.496,10.768 9.792,12.352 7.752,12.576 C4.768,12.904 2.264,10.504 2.408,7.56 C2.416,7.344 2.448,7.136 2.488,6.936 C2.328,6.976 2.168,7 2,7 C0.896,7 0,6.104 0,5 C0,3.896 0.896,3 2,3 C2.888,3 3.632,3.584 3.896,4.384 C4.808,3.528 6.056,3 7.384,3 L7.384,3 L16,3 Z M7.2,5.4 C5.872,5.4 4.8,6.472 4.8,7.8 C4.8,9.128 5.872,10.2 7.2,10.2 C8.528,10.2 9.6,9.128 9.6,7.8 C9.6,6.472 8.528,5.4 7.2,5.4 Z M7.2,6.2 C8.0836556,6.2 8.8,6.9163444 8.8,7.8 C8.8,8.6836556 8.0836556,9.4 7.2,9.4 C6.3163444,9.4 5.6,8.6836556 5.6,7.8 C5.6,6.9163444 6.3163444,6.2 7.2,6.2 Z M2,4.6 C1.776,4.6 1.6,4.776 1.6,5 C1.6,5.224 1.776,5.4 2,5.4 C2.224,5.4 2.4,5.224 2.4,5 C2.4,4.776 2.224,4.6 2,4.6 Z"></path>
</svg>
