<svg xmlns="http://www.w3.org/2000/svg"
  xmlns:xlink="http://www.w3.org/1999/xlink" x="0px" y="0px" viewBox="0 0 24 24"
  xml:space="preserve" width="28" height="28">
<title>Groente-, fruit-, etensresten en tuinafval (gfe/t)</title>
    <circle cx="12" cy="12" r="12" fill="#00a03c"></circle>
    <g transform="translate(7.000000, 4.000000)">
      <path
        d="M9.2,13.9814092 C8.59,13.5414092 7.58,12.6014092 7.49,11.9314092 C7.37,11.0114092 7.73,10.1314092 8.05,9.56140916 L8.19,9.31140916 L8.01,9.08140916 C7.53,8.47140916 7.26,7.87140916 7.19,7.31140916 C7.12,6.71140916 7.75,5.63140916 8.16,5.09140916 L8.47,4.69140916 L8.03,4.45140916 C7.34,4.06140916 6.6,3.91140916 5.88,4.00140916 C5.51,4.05140916 5.16,4.16140916 4.82,4.34140916 C4.97,3.85140916 4.97,3.34140916 4.81,2.85140916 C7.64,3.11140916 7.59,0.0914091551 7.59,0.0914091551 L7.59,0.0914091551 L7.57,0.0814091551 C7.57,0.0814091551 4.3,-0.728590845 4.24,2.76140916 C4.25,2.76140916 4.25,2.76140916 4.26,2.76140916 C4.47,3.23140916 4.49,3.75140916 4.33,4.23140916 C4.07,4.12140916 3.8,4.04140916 3.53,4.00140916 C2.8,3.91140916 2.06,4.06140916 1.37,4.44140916 L0.93,4.69140916 L1.24,5.09140916 C1.51,5.45140916 2.28,6.63140916 2.21,7.31140916 C2.14,7.87140916 1.87,8.47140916 1.4,9.08140916 L1.22,9.31140916 L1.36,9.56140916 C1.68,10.1314092 2.03,11.0114092 1.91,11.9314092 C1.81,12.6914092 0.8,13.6814092 0.42,14.0014092 L0,14.3514092 L0.43,14.6814092 C0.93,15.0614092 1.55,15.3314092 2.15,15.4114092 C2.29,15.4314092 2.43,15.4414092 2.57,15.4414092 C3.35,15.4414092 4.12,15.1614092 4.82,14.6314092 C5.65,15.2614092 6.58,15.5314092 7.49,15.4114092 C8.09,15.3314092 8.71,15.0714092 9.21,14.6814092 L9.67,14.3214092 L9.2,13.9814092 Z"
        fill="#FFFFFF"></path>
    </g>
</svg>