<?xml version="1.0" encoding="UTF-8"?>
<svg width="14px" height="14px" viewBox="0 0 14 14" version="1.1" xmlns="http://www.w3.org/2000/svg" xmlns:xlink="http://www.w3.org/1999/xlink">
    <title>Glas afval icoon</title>
    <g id="Icon/12/glas" stroke="none" stroke-width="1" fill="none" fill-rule="evenodd">
        <path d="M10,13 C10,14 8.99667359,14 8.99667359,14 L5,14 C4.805542,14 4,13.8708496 4,13 L4,12 L8,12 L8,7.001 L4,7.00183105 L4,5.00183105 C4,4 6,4 6,3 L6,-4.61852778e-13 L8,-4.61852778e-13 L8,3 C8,4 10,4 10,5.00183105 L10,13 Z M7,8 L7,11 L4,11 L4,8 L7,8 Z" id="Shape" fill="#000000"></path>
    </g>
</svg>
