<?xml version="1.0" encoding="UTF-8"?>
<svg width="16px" height="16px" viewBox="0 0 16 16" version="1.1" xmlns="http://www.w3.org/2000/svg" xmlns:xlink="http://www.w3.org/1999/xlink">
    <title>Glascontainer</title>
    <g transform="translate(5.000000, 1.000000)">
      <path d="M6,13 C6,14 4.99667359,14 4.99667359,14 L1,14 C0.805541996,14 4.61295713e-09,13.8708496 4.61295713e-09,13 L4.61295713e-09,12 L4,12 L4,7.001 L4.61295713e-09,7.00183105 L4.61295713e-09,5.00183105 C4.61295713e-09,4 2,4 2,3 L2,-4.54747351e-13 L4,-4.54747351e-13 L4,3 C4,4 6,4 6,5.00183105 L6,13 Z M3,8 L3,11 L0,11 L0,8 L3,8 Z"></path>
    </g>
</svg>
