<svg xmlns="http://www.w3.org/2000/svg"
  xmlns:xlink="http://www.w3.org/1999/xlink" x="0px" y="0px" viewBox="0 0 24 24"
  xml:space="preserve" width="28" height="28">
  <title>Grof Afval</title>
  <circle cx="12" cy="12" r="12" style="fill: rgb(0, 0, 0);"></circle>
  <g fill="#FFFFFF">
    <g transform="translate(4.500000, 4.000000)">
      <path d="M14.66,6.77 C14.66,5.87 13.94,5.19 12.98,5.19 C12.09,5.19 11.25,6.04 11.25,6.95 L11.25,10.02 L11.25,10.02 L11.25,10.52 L7.33,10.5 L3.41,10.51 L3.41,10.01 L3.41,10.01 L3.41,6.94 C3.41,6.04 2.57,5.18 1.68,5.18 C0.72,5.18 0,5.86 0,6.76 C0,7.65 0.56,8.35 1.34,8.43 L1.33,13.19 C1.33,14.03 2.01,14.7 2.84,14.7 L11.88,14.7 C12.68,14.7 13.33,14.05 13.33,13.25 L13.32,8.43 C14.1,8.35 14.66,7.65 14.66,6.77 Z"></path>
      <path d="M3.91,6.94 L3.91,10 L7.33,10 L7.33,10 L7.33,10 L8.65,10 C8.7,9.9 8.75,9.81 8.78,9.73 C8.82,9.64 8.84,9.57 8.89,9.52 C8.88,9.52 9.23,8.82 9.02,8.16 C8.94,7.89 8.8,7.68 8.63,7.53 C8.39,8.19 7.77,8.8 7.04,9.07 C6.53,9.26 6.18,9.18 5.98,9.08 C5.77,8.98 5.61,8.8 5.53,8.6 C5.41,8.27 5.43,7.93 5.58,7.64 C5.77,7.27 6.16,6.98 6.71,6.82 C7.19,6.67 7.73,6.64 8.21,6.77 C8.21,6.24 8.12,5.45 7.76,4.92 C7.72,4.87 7.68,4.81 7.63,4.77 C7.34,5.47 6.7,6.05 6,6.2 C5.55,6.3 5.22,6.27 4.97,6.12 C4.8,6.01 4.69,5.83 4.64,5.61 C4.55,5.23 4.68,4.8 4.97,4.47 C5.26,4.14 5.86,3.78 6.97,3.91 C7.09,3.92 7.2,3.95 7.31,3.98 C7.32,3.63 7.2,3.22 6.71,2.91 C6.47,2.76 6.24,2.66 6.01,2.61 L6.11,2.12 C6.4,2.18 6.69,2.3 6.98,2.48 C7.61,2.87 7.9,3.51 7.8,4.23 C7.94,4.35 8.07,4.49 8.19,4.67 C8.66,5.38 8.74,6.39 8.72,6.98 C9.07,7.19 9.36,7.53 9.51,8.02 C9.78,8.9 9.33,9.76 9.31,9.8 C9.28,9.85 9.27,9.89 9.25,9.93 C9.24,9.95 9.22,9.99 9.21,10.01 L10.75,10.01 L10.75,6.94 C10.75,5.99 11.45,5.11 12.33,4.81 L12.33,1 C12.33,0.45 11.88,0 11.33,0 L3.33,0 C2.78,0 2.33,0.45 2.33,1 L2.33,4.81 C3.21,5.12 3.91,5.99 3.91,6.94 Z"></path>
      <path d="M6.53,4.39 C5.87,4.39 5.52,4.61 5.34,4.81 C5.12,5.05 5.09,5.33 5.12,5.5 C5.14,5.6 5.18,5.66 5.24,5.7 C5.36,5.78 5.59,5.78 5.89,5.72 C6.46,5.59 6.99,5.08 7.21,4.48 C7.12,4.44 7.02,4.42 6.91,4.41 C6.78,4.39 6.65,4.39 6.53,4.39 Z"></path>
      <path d="M6.03,7.86 C5.94,8.04 5.94,8.23 6.01,8.44 C6.04,8.52 6.11,8.59 6.2,8.63 C6.31,8.69 6.53,8.73 6.87,8.6 C7.49,8.37 8.03,7.83 8.19,7.28 C8,7.21 7.8,7.18 7.59,7.18 C7.35,7.18 7.1,7.22 6.87,7.29 C6.44,7.42 6.16,7.62 6.03,7.86 Z"></path>
    </g>
  </g>
</svg>