<?xml version="1.0" encoding="UTF-8"?>
<svg width="16px" height="16px" viewBox="0 0 16 16" version="1.1" xmlns="http://www.w3.org/2000/svg" xmlns:xlink="http://www.w3.org/1999/xlink">
  <title>Gymzaal-icoon</title>
  <polygon fill-rule="nonzero" points="13 3 13 0 3 0 3 3 0 3 0 16 6 16 6 11.0424709 10 11.0424709 10 16 16 16 16 3"></polygon>
  <polygon fill="#000000" transform="translate(8.030836, 7.504697) rotate(-45.000000) translate(-8.030836, -7.504697) " points="11.9014407 9.24733815 12.6085475 8.54023137 11.9014407 7.83312459 10.4872271 9.24733815 6.24458644 5.00469747 7.6588 3.5904839 6.95169322 2.88337712 6.24458644 3.5904839 5.53747966 2.88337712 3.41615932 5.00469747 4.1232661 5.71180425 3.41615932 6.41891103 4.1232661 7.12601781 5.53747966 5.71180425 9.78012035 9.95444493 8.36590678 11.3686585 9.07301357 12.0757653 9.78012035 11.3686585 10.5109068 12.1260178 12.6455136 9.99141103"></polygon>
</svg>
