<?xml version="1.0" encoding="UTF-8"?>
<svg width="16px" height="16px" viewBox="0 0 16 16" version="1.1" xmlns="http://www.w3.org/2000/svg" xmlns:xlink="http://www.w3.org/1999/xlink">
  <title>Gymzaal-icoon</title>
  <path d="M14,8 L14,10 L11.0097532,10 C10.6668451,10 10.4321682,10.495166 10.4321682,10.9148236 C10.4321682,11.3344812 10.4490325,11.783441 10.3647109,12.197346 C10.0780171,13.6605874 8.88064926,14.8148575 7.44718066,14.9780876 C5.3503815,15.2171032 3.59086907,13.468209 3.69205509,11.3228989 C3.69767653,11.1654984 3.72016231,11.0139276 3.74826954,10.8681864 C3.63584063,10.8973346 3.52341172,10.9148236 3.40536137,10.9148236 C2.62960189,10.9148236 2,10.2619031 2,9.45741179 C2,8.65292048 2.62960189,8 3.40536137,8 C4.02934182,8 4.55213624,8.42556424 4.73764394,9.00852896 C5.37848873,8.38475671 6.25543422,8 7.18859417,8 L7.18859417,8 L14,8 Z M7.05930092,9.74889415 C6.12614098,9.74889415 5.37286728,10.5300669 5.37286728,11.4977883 C5.37286728,12.4655097 6.12614098,13.2466824 7.05930092,13.2466824 C7.99246087,13.2466824 8.74573457,12.4655097 8.74573457,11.4977883 C8.74573457,10.5300669 7.99246087,9.74889415 7.05930092,9.74889415 Z M8,0 L16,6 L12,6 L8,3 L4,6 L0,6 L8,0 Z"></path>
</svg>
