<?xml version="1.0" encoding="UTF-8"?>
<svg width="16px" height="16px" viewBox="0 0 16 16" version="1.1" xmlns="http://www.w3.org/2000/svg" xmlns:xlink="http://www.w3.org/1999/xlink">
    <title>Hardlopen-icoon</title>
    <path d="M8.36363636,3.27272727 C9.15636364,3.27272727 9.81818182,2.60363636 9.81818182,1.81818182 C9.81818182,1.00363636 9.15636364,0.363636364 8.36363636,0.363636364 C7.55636364,0.363636364 6.90909091,1.00363636 6.90909091,1.81818182 C6.90909091,2.60363636 7.55636364,3.27272727 8.36363636,3.27272727 M5.73818182,13.3672727 L6.46545455,10.1818182 L8,11.6363636 L8,16 L9.45454545,16 L9.45454545,10.5454545 L7.92,9.09090909 L8.36363636,6.90909091 C9.30181818,8 10.7563636,8.72727273 12.3636364,8.72727273 L12.3636364,7.27272727 C10.9745455,7.27272727 9.81818182,6.54545455 9.22909091,5.51272727 L8.50181818,4.36363636 C8.21090909,3.91272727 7.77454545,3.63636364 7.27272727,3.63636364 C7.04727273,3.63636364 6.90909091,3.69454545 6.68363636,3.69454545 L2.90909091,5.29454545 L2.90909091,8.72727273 L4.36363636,8.72727273 L4.36363636,6.24 L5.66545455,5.73090909 L4.50181818,11.6363636 L0.938181818,10.9090909 L0.647272727,12.3636364 L5.73818182,13.3672727 Z"></path>
</svg>
