<?xml version="1.0" encoding="UTF-8"?>
<svg width="32px" height="32px" viewBox="0 0 32 32" version="1.1" xmlns="http://www.w3.org/2000/svg" xmlns:xlink="http://www.w3.org/1999/xlink" fill="EC0000">
    <title>Bedrijfsgebouw</title>
    <g
     transform="scale(0.88888889)"
     id="g909">
    <circle
       fill="#ff0000"
       id="path877"
       cx="18"
       cy="18"
       r="18" />
    <g
       transform="matrix(0.62068966,0,0,0.62068966,8.6896552,7.4482759)">
      <path
         d="M 22,7 V 0 H 0 V 32 H 32 V 7 Z M 4,28 V 4 h 14 v 24 z m 26,2 H 22 V 9 h 8 z M 6,7 h 4 v 4 H 6 Z m 0,7 h 4 v 4 H 6 Z M 16,11 H 12 V 7 h 4 z m 0,7 h -4 v -4 h 4 z m 10,0 h -2 v -2 h 4 v 2 z m 0,4 h -2 v -2 h 4 v 2 z m 0,4 h -2 v -2 h 4 v 2 z m 0,-12 h -2 v -2 h 4 v 2 z M 6,21 h 4 v 4 H 6 Z m 10,4 h -4 v -4 h 4 z"
         fill="#ffffff" />
    </g>
  </g>
</svg>
