<?xml version="1.0" encoding="UTF-8"?>
<svg width="30px" height="30px" viewBox="0 0 30 30" version="1.1" xmlns="http://www.w3.org/2000/svg" xmlns:xlink="http://www.w3.org/1999/xlink" fill="EC0000">
    <title>Bedrijfsgebouw</title>

    <path d="M15,30 C23.2842712,30 30,23.2842712 30,15 C30,6.71572875 23.2842712,0 15,0 C6.71572875,0 0,6.71572875 0,15 C0,23.2842712 6.71572875,30 15,30 Z" fill="#EC0000"/>
    <g transform="translate(6.000000, 6.000000)">
    <path fill="#ffffff" d="M17,4 L18,9 L18,11 L17,11 L16.8964233,17 L15,17 L15,11 L11,11 L11,17 L1,17 L1,11 L0,11 L0,9 L1,4 L17,4 Z M9,11 L3,11 L3,15 L9,15 L9,11 Z M17,1 L17,3 L1,3 L1,1 L17,1 Z" id="Combined-Shape"></path>
    </g>
</svg>
