<?xml version="1.0" encoding="UTF-8"?>
<svg width="16px" height="16px" viewBox="0 0 16 16" version="1.1" xmlns="http://www.w3.org/2000/svg" xmlns:xlink="http://www.w3.org/1999/xlink">
    <title>Jeu-de-boules-icoon</title>
    <path d="M10.7130584,11.5562712 C11.476026,10.8393267 12.6757319,10.8766358 13.3926764,11.6396034 L13.4816438,11.734282 C14.2140088,12.5136599 14.1828251,13.7372501 13.4117111,14.4783112 C12.6284551,15.2310413 11.3924378,15.2306187 10.6109387,14.4785483 C9.8404462,13.73707 9.8092742,12.5139184 10.5409979,11.7341562 L10.6288398,11.6405474 C10.6560227,11.6115799 10.6841095,11.5834739 10.7130584,11.5562712 Z M11.2703785,10.1378472 C10.8198715,10.256621 10.3916456,10.4860729 10.0282727,10.8275267 C9.9840528,10.8690792 9.94115,10.9120114 9.8996277,10.9562596 L9.8117859,11.0498684 C8.78625426,12.1427273 8.75189321,13.8116474 9.6803091,14.9424989 C7.7668141,15.3321696 5.78317352,15.1940138 3.94191096,14.542578 L3.72296792,14.4651163 L4.11954073,13.3424544 C5.41652842,9.67079918 4.88240854,5.60054294 2.682019,2.38783147 L3.19124236,2.0405521 C5.05495662,0.769539116 7.43865903,0.538196297 9.5119983,1.4271108 C11.1822546,4.03051141 11.7908956,7.14313738 11.2703785,10.1378472 Z M12.6476664,10.1125712 L12.6654043,10.0139913 C12.9021317,8.69835844 12.9118913,7.35190959 12.6942604,6.03298336 L12.5054642,4.88880673 C12.3748966,4.09751708 12.0896734,3.33971396 11.666096,2.65870782 C11.9268425,2.85800833 12.1730606,3.07563007 12.4028808,3.30992076 C14.3850211,5.33061769 14.8739616,8.25925327 13.8828785,10.7279075 C13.5177866,10.4179061 13.0925583,10.2123744 12.6476664,10.1125712 Z M1.7213405,3.3427243 C3.65586356,6.2032004 4.11404094,9.81343061 2.95538859,13.0664642 L2.682019,13.833977 C-0.464009114,11.218104 -0.910015357,6.55387609 1.68326034,3.38919508 L1.7213405,3.3427243 Z" fill-rule="nonzero"></path>
</svg>
