<?xml version="1.0" encoding="UTF-8"?>
<svg width="16px" height="16px" viewBox="0 0 16 16" version="1.1" xmlns="http://www.w3.org/2000/svg" xmlns:xlink="http://www.w3.org/1999/xlink">
    <title>Openbaar groen en water</title>
    <g id="Icon/16/openbaar-groen-en-water" stroke="none" stroke-width="1"  fill-rule="non-zero">
        <path d="M13.336,12.8235294 C14.896,12.8235294 15.008,13.7647059 16,13.7647059 L16,13.7647059 L16,15.6470588 C14.472,15.6470588 14.288,14.7058824 13.336,14.7058824 C12.344,14.7058824 12.224,15.6470588 10.672,15.6470588 C9.144,15.6470588 8.96,14.7058824 8.008,14.7058824 C7.016,14.7058824 6.896,15.6470588 5.336,15.6470588 C3.776,15.6470588 3.664,14.7058824 2.672,14.7058824 C1.688,14.7058824 1.56,15.6470588 0,15.6470588 L0,15.6470588 L0,13.7647059 C0.992,13.7647059 1.112,12.8235294 2.672,12.8235294 C4.232,12.8235294 4.344,13.7647059 5.336,13.7647059 C6.328,13.7647059 6.448,12.8235294 8.008,12.8235294 C9.536,12.8235294 9.72,13.7647059 10.672,13.7647059 C11.664,13.7647059 11.776,12.8235294 13.336,12.8235294 Z M13.3333333,9 C14.8628629,9 15.047047,9.94117647 16,9.94117647 L16,9.94117647 L16,11.8235294 C14.4704705,11.8047059 14.3023023,10.8823529 13.3493493,10.8823529 C12.3563564,10.8823529 12.2442442,11.8235294 10.6826827,11.8235294 C9.15315315,11.8235294 8.96896897,10.8823529 8.01601602,10.8823529 C7.02302302,10.8823529 6.91091091,11.8235294 5.34934935,11.8235294 C3.81981982,11.8235294 3.63563564,10.8823529 2.68268268,10.8823529 C1.73773774,10.8823529 1.52152152,11.8235294 0,11.8235294 L0,11.8235294 L0,9.94117647 C0.992992993,9.94117647 1.10510511,9 2.66666667,9 C4.1961962,9 4.38038038,9.94117647 5.33333333,9.94117647 C6.32632633,9.94117647 6.43843844,9 8,9 C9.52952953,9 9.71371371,9.94117647 10.6666667,9.94117647 C11.6596597,9.94117647 11.7717718,9 13.3333333,9 Z M11.002409,0 L14,4 L13,4 L14.9944134,7 L12,7 L12,9 L10,9 L10,7 L7,7 L8.96089385,4 L8,4.02441478 L11.002409,0 Z" id="Combined-Shape"></path>
    </g>
</svg>
