<?xml version="1.0" encoding="UTF-8"?>
<svg width="16px" height="17px" viewBox="0 0 16 17" version="1.1" xmlns="http://www.w3.org/2000/svg" xmlns:xlink="http://www.w3.org/1999/xlink">
    <title>Overlast bedrijven en horeca</title>
    <g id="mijn-buurt-/-desktop" stroke="none" stroke-width="1" fill-rule="non-zero">
        <g id="desktop-/-meldingen-/-menu" transform="translate(-84.000000, -625.000000)" >
            <g id="navigation-/-sidebar-/-primary-/-64" transform="translate(0.000000, 611.000000)">
                <g id="pin-/-object" transform="translate(72.000000, 2.000000)">
                    <g id="Icon/16/car" transform="translate(12.000000, 12.000000)">
                        <path d="M12,0 C14.209139,0 16,1.790861 16,4 C16,4.78700577 15.7727146,5.52092618 15.3802024,6.13970245 L15.4007081,6.10702929 L15.4007081,6.10702929 L16,9.11111111 L16,10.8888889 L15.1111111,10.8888889 L15.1111111,16.2222222 L13.3333333,16.2222222 L13.3333333,10.8888889 L9.77777778,10.8888889 L9.77777778,16.2222222 L0.888888889,16.2222222 L0.888888889,10.8888889 L0,10.8888889 L0,9.11111111 L0.888888889,4.66659823 L8.05529415,4.66659823 L8.06456631,4.71967115 C8.02215151,4.48621334 8,4.24569355 8,4 L8.00489531,3.80035966 L8.00489531,3.80035966 L8.00609954,3.77721217 L0.888888889,3.77777778 L0.888888889,2 L8.53570746,1.99899996 L8.47882618,2.10065592 C9.154988,0.849763574 10.4782575,0 12,0 Z M8,10.8888889 L2.66666667,10.8888889 L2.66666667,14.4444444 L8,14.4444444 L8,10.8888889 Z M12,1 C10.3431458,1 9,2.34314575 9,4 C9,5.65685425 10.3431458,7 12,7 C13.6568542,7 15,5.65685425 15,4 C15,2.34314575 13.6568542,1 12,1 Z M12.6,5.2 L12.6,6.4 L11.4,6.4 L11.4,5.2 L12.6,5.2 Z M12.6,1.6 L12.6,4.6 L11.4,4.6 L11.4,1.6 L12.6,1.6 Z" id="Combined-Shape"></path>
                    </g>
                </g>
            </g>
        </g>
    </g>
</svg>
