<?xml version="1.0" encoding="UTF-8"?>
<svg width="16px" height="16px" viewBox="0 0 16 16" version="1.1"
    xmlns="http://www.w3.org/2000/svg"
    xmlns:xlink="http://www.w3.org/1999/xlink">
    <title>Overlast op water</title>
    <path d="M13.336,12.8235294 C14.116,12.8235294 14.534,13.0588235 14.881,13.2941176 L15.1050082,13.4483983 C15.3248848,13.5975147 15.5419465,13.7233922 15.8424156,13.756314 L16,13.7647059 L16,15.6470588 C15.3208889,15.6470588 14.9072593,15.4611474 14.5736955,15.2545792 L14.1102222,14.9498911 C13.8853333,14.8104575 13.6533333,14.7058824 13.336,14.7058824 C13.0053333,14.7058824 12.7715556,14.8104575 12.5493333,14.9498911 L12.0950123,15.2545792 C11.7686914,15.4611474 11.3617778,15.6470588 10.672,15.6470588 C9.99288889,15.6470588 9.57925926,15.4611474 9.24569547,15.2545792 L8.78222222,14.9498911 C8.55733333,14.8104575 8.32533333,14.7058824 8.008,14.7058824 C7.67733333,14.7058824 7.44355556,14.8104575 7.22103704,14.9498911 L6.885,15.1764706 C6.536,15.4117647 6.116,15.6470588 5.336,15.6470588 C4.64266667,15.6470588 4.23535802,15.4611474 3.90969547,15.2545792 L3.45688889,14.9498911 C3.23555556,14.8104575 3.00266667,14.7058824 2.672,14.7058824 C2.344,14.7058824 2.11111111,14.8104575 1.88859259,14.9498911 L1.552,15.1764706 C1.24088889,15.3856209 0.872888889,15.5947712 0.247133059,15.638667 L0,15.6470588 L0,13.7647059 C0.385777778,13.7647059 0.639679012,13.6223675 0.897680384,13.4483983 L1.123,13.2941176 C1.472,13.0588235 1.892,12.8235294 2.672,12.8235294 C3.36533333,12.8235294 3.77264198,13.0094408 4.09830453,13.216009 L4.44100823,13.4483983 C4.69753086,13.6223675 4.95022222,13.7647059 5.336,13.7647059 C5.72177778,13.7647059 5.97567901,13.6223675 6.23368038,13.4483983 L6.459,13.2941176 C6.808,13.0588235 7.228,12.8235294 8.008,12.8235294 C8.772,12.8235294 9.2,13.0588235 9.556,13.2941176 L9.78556379,13.4483983 C10.0477037,13.6223675 10.3017778,13.7647059 10.672,13.7647059 C11.0026667,13.7647059 11.2355556,13.6601307 11.4568889,13.5206972 L11.9096955,13.216009 C12.235358,13.0094408 12.6426667,12.8235294 13.336,12.8235294 Z M13.3333333,9 C14.0131242,9 14.4271679,9.1859114 14.7610656,9.39247963 L15.2250028,9.69716776 C15.4125978,9.81336238 15.605136,9.90534979 15.8479302,9.93278464 L16,9.94117647 L16,11.8235294 C15.3202091,11.8151634 14.9093291,11.6283224 14.5789466,11.4233035 L14.2312903,11.1934415 C13.9718484,11.0218446 13.7199422,10.8823529 13.3493493,10.8823529 C13.0183517,10.8823529 12.7852297,10.9869281 12.5636748,11.1263617 L12.1104149,11.4310498 C11.7844264,11.637618 11.37671,11.8235294 10.6826827,11.8235294 C10.0028918,11.8235294 9.58884811,11.637618 9.25495042,11.4310498 L8.90333955,11.1986605 C8.64093723,11.0246914 8.38660883,10.8823529 8.01601602,10.8823529 C7.68501835,10.8823529 7.45189634,10.9869281 7.23034145,11.1263617 L6.77708161,11.4310498 C6.45109307,11.637618 6.04337671,11.8235294 5.34934935,11.8235294 C4.66955845,11.8235294 4.25551477,11.637618 3.92161709,11.4310498 L3.57000622,11.1986605 C3.3076039,11.0246914 3.0532755,10.8823529 2.68268268,10.8823529 C2.3491727,10.8823529 2.10643862,10.9995929 1.86505414,11.1513152 L1.49281135,11.3944158 C1.18668801,11.5875169 0.821542079,11.7712312 0.255367926,11.8141426 L0,11.8235294 L0,9.94117647 C0.330997664,9.94117647 0.564119675,9.83660131 0.785674563,9.69716776 L1.23893441,9.39247963 C1.56492295,9.1859114 1.97263931,9 2.66666667,9 C3.43143143,9 3.85985986,9.23529412 4.21621622,9.47058824 L4.55833611,9.69716776 C4.78345012,9.83660131 5.01568235,9.94117647 5.33333333,9.94117647 C5.664331,9.94117647 5.89745301,9.83660131 6.1190079,9.69716776 L6.45345345,9.47058824 C6.8008008,9.23529412 7.21921922,9 8,9 C8.6797909,9 9.09383458,9.1859114 9.42773226,9.39247963 L9.89166945,9.69716776 C10.1167835,9.83660131 10.3490157,9.94117647 10.6666667,9.94117647 C10.9976643,9.94117647 11.2307863,9.83660131 11.4523412,9.69716776 L11.7867868,9.47058824 C12.1341341,9.23529412 12.5525526,9 13.3333333,9 Z M15.5427146,5.85894132 C15.6437023,5.89696724 15.7525941,5.92423984 15.874095,5.93547123 L16,5.94117647 L16,7.82352941 C15.2798718,7.81466698 14.8615145,7.60552057 14.520945,7.38664883 L14.324146,7.25568322 L14.1780419,7.35557528 C13.5513371,7.76319193 12.8033233,8 12,8 C11.558764,8 11.1342143,7.92855732 10.7372875,7.79660856 L10.8104595,7.82014835 L10.8104595,7.82014835 L10.6826827,7.82352941 C10.0028918,7.82352941 9.58884811,7.63761801 9.25495042,7.43104979 L8.90333955,7.19866053 C8.64093723,7.02469136 8.38660883,6.88235294 8.01601602,6.88235294 C7.68501835,6.88235294 7.45189634,6.9869281 7.23034145,7.12636166 L6.77708161,7.43104979 C6.45109307,7.63761801 6.04337671,7.82352941 5.34934935,7.82352941 C4.66955845,7.82352941 4.25551477,7.63761801 3.92161709,7.43104979 L3.57000622,7.19866053 C3.3076039,7.02469136 3.0532755,6.88235294 2.68268268,6.88235294 C2.3491727,6.88235294 2.10643862,6.99959292 1.86505414,7.15131524 L1.49281135,7.39441578 C1.18668801,7.58751691 0.821542079,7.77123119 0.255367926,7.81414255 L0,7.82352941 L0,5.94117647 C0.330997664,5.94117647 0.564119675,5.83660131 0.785674563,5.69716776 L1.23893441,5.39247963 C1.56492295,5.1859114 1.97263931,5 2.66666667,5 C3.43143143,5 3.85985986,5.23529412 4.21621622,5.47058824 L4.55833611,5.69716776 C4.78345012,5.83660131 5.01568235,5.94117647 5.33333333,5.94117647 C5.664331,5.94117647 5.89745301,5.83660131 6.1190079,5.69716776 L6.45345345,5.47058824 C6.8008008,5.23529412 7.21921922,5 8,5 L8.12673167,5.00277066 C8.04400626,4.68231672 8,4.34629746 8,4 C8,1.790861 9.790861,0 12,0 C14.209139,0 16,1.790861 16,4 C16,4.60249245 15.8667955,5.17387332 15.6282299,5.68629907 L15.5427146,5.85894132 L15.5427146,5.85894132 Z M12,1 C10.3431458,1 9,2.34314575 9,4 C9,5.65685425 10.3431458,7 12,7 C13.6568542,7 15,5.65685425 15,4 C15,2.34314575 13.6568542,1 12,1 Z M12.6,5.2 L12.6,6.4 L11.4,6.4 L11.4,5.2 L12.6,5.2 Z M12.6,1.6 L12.6,4.6 L11.4,4.6 L11.4,1.6 L12.6,1.6 Z"></path>
</svg>
