<?xml version="1.0" encoding="UTF-8"?>
<svg width="16px" height="16px" viewBox="0 0 16 16" version="1.1"
    xmlns="http://www.w3.org/2000/svg"
    xmlns:xlink="http://www.w3.org/1999/xlink">
    <title>Overlast in de openbare ruimte</title>
    <path d="M12,0 C14.209139,0 16,1.790861 16,4 C16,6.209139 14.209139,8 12,8 C11.1810276,8 10.4195405,7.75387578 9.78547112,7.33155956 C9.85506116,7.37792536 9.92673827,7.4224882 9.99987956,7.46480154 L10,8 L15,8 L15,16 L0,16 L0,4 L5,4 L5,3 L7.57894737,0 L8.83345025,1.55571923 L8.80212545,1.59678367 C9.53203754,0.627055893 10.6927904,0 12,0 Z M3.36842105,12.6315789 L1.68421053,12.6315789 L1.68421053,14.3157895 L3.36842105,14.3157895 L3.36842105,12.6315789 Z M8.42105263,12.6315789 L6.73684211,12.6315789 L6.73684211,14.3157895 L8.42105263,14.3157895 L8.42105263,12.6315789 Z M13.4736842,12.6315789 L11.7894737,12.6315789 L11.7894737,14.3157895 L13.4736842,14.3157895 L13.4736842,12.6315789 Z M3.36842105,9.26315789 L1.68421053,9.26315789 L1.68421053,10.9473684 L3.36842105,10.9473684 L3.36842105,9.26315789 Z M8.42105263,9.26315789 L6.73684211,9.26315789 L6.73684211,10.9473684 L8.42105263,10.9473684 L8.42105263,9.26315789 Z M13.4736842,9.26315789 L11.7894737,9.26315789 L11.7894737,10.9473684 L13.4736842,10.9473684 L13.4736842,9.26315789 Z M3.36842105,5.89473684 L1.68421053,5.89473684 L1.68421053,7.57894737 L3.36842105,7.57894737 L3.36842105,5.89473684 Z M8.42105263,5.89473684 L6.73684211,5.89473684 L6.73684211,7.57894737 L8.42105263,7.57894737 L8.42105263,5.89473684 Z M12,1 C10.3431458,1 9,2.34314575 9,4 C9,5.65685425 10.3431458,7 12,7 C13.6568542,7 15,5.65685425 15,4 C15,2.34314575 13.6568542,1 12,1 Z M12.6,5.2 L12.6,6.4 L11.4,6.4 L11.4,5.2 L12.6,5.2 Z M12.6,1.6 L12.6,4.6 L11.4,4.6 L11.4,1.6 L12.6,1.6 Z M8.28575756,2.51241454 L8.28021286,2.52632188 L8.28021286,2.52632188 L6.73684211,2.52631579 L6.73684211,4.21052632 L8.00545488,4.21071521 L8.00489531,4.19964034 C8.0016445,4.13350312 8,4.06694361 8,4 C8,3.47428468 8.10141847,2.97225691 8.28575756,2.51241454 Z"></path>
</svg>