<?xml version="1.0" encoding="UTF-8"?>
<svg width="16px" height="16px" viewBox="0 0 16 16" version="1.1"
    xmlns="http://www.w3.org/2000/svg"
    xmlns:xlink="http://www.w3.org/1999/xlink">
    <title>Overlast van dieren</title>
    <path d="M6.00002758,0 C7.54581697,0 9.00002758,1.45454459 9.00002758,3.00439835 C9.00002758,4.49934183 7.64957744,5.89657009 6.16542214,5.99446529 L6.00002758,5.99993443 L4.00002758,5.99993443 C2.55973661,5.99993443 2,6.55787504 2,8 C2,9.2896934 2.34524676,9.75003501 3.02032343,9.91881461 C3.18306714,9.95950305 3.3387715,9.98107333 3.5491056,9.99152923 L3.8316756,9.99925365 L4.25648567,9.99887013 C4.73886307,8.63526375 5.85988245,7.57348608 7.26008786,7.17299309 C7.09249222,7.58249172 7.00002758,8.03044773 7.00002758,8.5 C7.00002758,9.39215229 7.33382712,10.2063415 7.88334782,10.8244893 L8.02515385,10.9748737 L8.73275877,10.268265 C8.28005503,9.81581464 8.00002758,9.19060928 8.00002758,8.5 C8.00002758,7.93630441 8.18659039,7.41618289 8.50133877,6.99801267 L8.60552405,6.8687217 C8.78196913,6.66399056 8.99103587,6.48817093 9.22465326,6.34933383 L9.40444427,6.25221709 C9.50272516,6.2042192 9.6047288,6.16244093 9.70983423,6.12745166 L9.89751064,6.07308605 C9.99131903,6.04987373 10.0872162,6.0319582 10.1848665,6.01967508 L10.339,6.005 L10.5000276,6 C11.825511,6 12.9100663,7.03153594 12.9947099,8.33562431 L13.0000276,8.5 L12.9886631,8.73992945 L12.966,8.905 L12.9439898,9.02882577 L12.8977242,9.21015812 L12.8442087,9.37075168 L12.814059,9.44791886 L12.7705193,9.54779774 L15.4321813,12.5935221 C15.782509,12.9619861 16.0000276,13.455591 16.0000276,14 C16.0000276,15.0543618 15.1841498,15.9181651 14.1492899,15.9945143 L14.0000276,16 L8.50002758,16 C6.18399353,16 4.27661398,14.2503421 4.02757023,12.0007074 L3.56926311,11.9944623 C3.17753551,11.9821703 2.88540285,11.9466427 2.53522395,11.8590926 C0.953898817,11.4637368 0,10.191837 0,8 C0,5.52908036 1.36966199,4.08893679 3.77181149,4.00392434 L4.00002758,3.99993443 L6.00002758,3.99993443 C6.44531385,3.99993443 7.00002758,3.44793696 7.00002758,3.00439835 C7.00002758,2.59082465 6.51813362,2.07927904 6.09610862,2.00831117 L6.00002758,2 L5.00002758,2 C4.44774284,2 4.00002758,1.55228475 4.00002758,1 C4.00002758,0.487164161 4.38606778,0.0644928393 4.88340646,0.00672773133 L5.00002758,0 L6.00002758,0 Z M12.0000276,12 C11.4477428,12 11.0000276,12.4477153 11.0000276,13 C11.0000276,13.5522847 11.4477428,14 12.0000276,14 C12.5523123,14 13.0000276,13.5522847 13.0000276,13 C13.0000276,12.4477153 12.5523123,12 12.0000276,12 Z"></path>
</svg>
