<?xml version="1.0" encoding="UTF-8" standalone="no"?>
<svg width="32px" height="32px" viewBox="0 0 647 1022" version="1.1"
  xmlns="http://www.w3.org/2000/svg"
  xmlns:xlink="http://www.w3.org/1999/xlink">
  <title>Kaartlocatie icoon</title>
  <path fill-rule="evenodd"
    d="M610.613412,472.509907 C633.859999,427.885295 647,377.16074 647,323.368421 C647,144.776974 502.164117,0 323.5,0 C144.835883,0 0,144.776974 0,323.368421 C0,378.668514 13.8869407,430.726458 38.3651157,476.247885 L320.535726,1021.66685 L610.729985,472.509868 L610.613432,472.509868 L610.613412,472.509907 Z M323.5,431.157895 C383.054706,431.157895 431.333333,382.898904 431.333333,323.368421 C431.333333,263.837939 383.054706,215.578947 323.5,215.578947 C263.945294,215.578947 215.666667,263.837939 215.666667,323.368421 C215.666667,382.898904 263.945294,431.157895 323.5,431.157895 Z"
    fill="#004699"></path>
</svg>