<?xml version="1.0" encoding="UTF-8"?>
<svg width="14px" height="14px" viewBox="0 0 14 14" version="1.1" xmlns="http://www.w3.org/2000/svg" xmlns:xlink="http://www.w3.org/1999/xlink">
    <title>Plastic afval icoon</title>
    <g id="Icon/12/plastic" stroke="none" stroke-width="1" fill="none" fill-rule="evenodd">
        <path d="M10,11 L10,13.0430908 L9,14 L5.01367188,14 L4,13.0430908 L4,11 L10,11 Z M10,9 L10,10 L4,10 L4,9 L10,9 Z M10,7 L10,8 L4,8 L4,7 L10,7 Z M8,2 L10,4.00183105 L10,6.00183105 L4,6.00183105 L4,4.00183105 L6,2 L8,2 Z M8,0 L8,1 L6,1 L6,0 L8,0 Z" id="Combined-Shape" fill="#000000"></path>
    </g>
</svg>
