<?xml version="1.0" encoding="UTF-8"?>
<svg width="16px" height="16px" viewBox="0 0 16 16" version="1.1" xmlns="http://www.w3.org/2000/svg" xmlns:xlink="http://www.w3.org/1999/xlink">
    <title>Plasticintainer</title>
    <g transform="translate(5.000000, 1.000000)">
      <path d="M6,11 L6,13.0430908 L5,14 L1.01367188,14 L0,13.0430908 L0,11 L6,11 Z M6,9 L6,10 L0,10 L0,9 L6,9 Z M6,7 L6,8 L0,8 L0,7 L6,7 Z M4,2 L6,4.00183105 L6,6.00183105 L0,6.00183105 L0,4.00183105 L2,2 L4,2 Z M4,0 L4,1 L2,1 L2,0 L4,0 Z"></path>
    </g>
</svg>
