<?xml version="1.0" encoding="UTF-8"?>
<svg width="16px" height="16px" viewBox="0 0 16 16" version="1.1" xmlns="http://www.w3.org/2000/svg" xmlns:xlink="http://www.w3.org/1999/xlink">
    <title>Restcontainer</title>
    <path d="M4,13 C4,13.5522847 3.55228475,14 3,14 C2.44771525,14 2,13.5522847 2,13 L4,13 Z M10,13 C10,13.5522847 9.55228475,14 9,14 C8.44771525,14 8,13.5522847 8,13 L10,13 Z M11,4 L10,12 L2,12 L0.995483398,4 L11,4 Z M4,5 L3,5 L3,11 L9,11 L9,5 L8,5 L8,10 L4,10 L4,5 Z M8,0 L8,2 L12,2 L12,3 L0,3 L0,2 L4,2 L4,0 L8,0 Z M7,1 L5,1 L5,2 L7,2 L7,1 Z"></path>
</svg>
