<svg xmlns="http://www.w3.org/2000/svg"
  xmlns:xlink="http://www.w3.org/1999/xlink" x="0px" y="0px" viewBox="0 0 24 24"
  xml:space="preserve" width="28" height="28">
  <title>Rest Afval</title>
  <circle cx="12" cy="12" r="12" style="fill: rgb(120, 120, 120);"></circle>
  <g transform="translate(6.000000, 4.000000)">
    <polygon points="6.88249659 2.26 7.65249659 0.66 4.02249659 -2.22044605e-16 4.76249659 2.26" fill="#FFFFFF"></polygon>
    <path d="M11.8324966,12.12 L10.9524966,11.17 L9.26249659,11.68 L9.12249659,11.2 L10.8624966,10.68 L11.3324966,10.17 C11.5124966,10.05 11.5924966,9.83 11.5224966,9.62 L10.6924966,7.53 L7.74249659,6.69 L7.88249659,6.21 L10.5924966,6.98 L10.6724966,6.39 C10.6824966,6.29 10.6624966,6.19 10.6224966,6.1 L10.5024966,5.87 C9.98249659,4.91 9.24249659,4.1 8.33249659,3.5 L7.15249659,2.72 L7.15249659,2.76 L6.23249659,2.76 L7.00249659,4.39 L6.54249659,4.61 L5.81249659,3.05 L4.43249659,5.5 L3.99249659,5.26 L5.40249659,2.76 L4.47249659,2.76 L1.83249659,4.52 C1.73249659,4.59 1.66249659,4.69 1.63249659,4.8 L0.632496592,8.85 C0.612496592,8.92 0.612496592,9 0.632496592,9.07 L0.792496592,9.72 L3.55249659,8.14 L3.80249659,8.57 L0.662496592,10.37 L0.652496592,10.36 C0.462496592,10.74 0.192496592,11.32 0.0824965916,11.71 C-0.167503408,12.55 0.162496592,13.47 0.912496592,13.91 C1.11249659,14.03 1.32249659,14.11 1.52249659,14.11 L10.1024966,14.11 C10.8124966,14.11 11.4624966,14.03 11.8024966,13.4 C11.9824966,13.08 12.1724966,12.62 11.8324966,12.12 Z" fill="#FFFFFF"></path>
  </g>
</svg>