<?xml version="1.0" encoding="UTF-8"?>
<svg width="16px" height="16px" viewBox="0 0 16 16" version="1.1"
    xmlns="http://www.w3.org/2000/svg"
    xmlns:xlink="http://www.w3.org/1999/xlink">
    <title>Schoon</title>
    <path d="M2.29289322,4.87867966 L5.414,7.99978644 L10,8 L8,16 L2,16 L0,8 L2.585,7.99978644 L0.878679656,6.29289322 C0.488155365,5.90236893 0.488155365,5.26920395 0.878679656,4.87867966 C1.26920395,4.48815536 1.90236893,4.48815536 2.29289322,4.87867966 Z M13.9577332,10 C14.624436,10 14.9577874,10.3333333 14.9577874,11 L14.957193,12.2539771 C14.9461006,13.5533039 14.7391304,16 11,16 L8.916008,16 C9.63866933,16 10,15.6017945 10,14.8053834 L10,11.1999952 C10,10.3999984 10.3333333,10 11,10 L13.9577332,10 Z M5,9 C4.44771525,9 4,9.44771525 4,10 C4,10.5522847 4.44771525,11 5,11 C5.55228475,11 6,10.5522847 6,10 C6,9.44771525 5.55228475,9 5,9 Z M13,0 L13,8 L14,8 L14,9 L11,9 L11,8 L12,8 L12,0 L13,0 Z"></path>
</svg>