<?xml version="1.0" encoding="UTF-8"?>
<svg width="16px" height="16px" viewBox="0 0 16 16" version="1.1" xmlns="http://www.w3.org/2000/svg" xmlns:xlink="http://www.w3.org/1999/xlink">
  <title>Sporthal-icoon</title>
  <path d="M8,12.5 C9.08666667,12.5 10.0466667,12.76 10.8266667,13.1 C11.5466667,13.42 12,14.14 12,14.92 L12,16 L4,16 L4,14.9266667 C4,14.14 4.45333333,13.42 5.17333333,13.1066667 C5.95333333,12.76 6.91333333,12.5 8,12.5 Z M2.66666667,13.3333333 C2.92666667,13.3333333 3.17333333,13.36 3.42,13.4 C3.15333333,13.8533333 3,14.3733333 3,14.9266667 L3,14.9266667 L3,16 L0,16 L0,14.9533333 C0,14.4133333 0.32,13.9333333 0.813333333,13.72 C1.38,13.4733333 2.00666667,13.3333333 2.66666667,13.3333333 Z M13.3333333,13.3333333 C13.9933333,13.3333333 14.62,13.4733333 15.1866667,13.72 C15.68,13.9333333 16,14.4133333 16,14.9533333 L16,14.9533333 L16,16 L13,16 L13,14.9266667 C13,14.3733333 12.8466667,13.8533333 12.58,13.4 C12.8266667,13.36 13.0733333,13.3333333 13.3333333,13.3333333 Z M2.66666667,10 C3.4,10 4,10.6 4,11.3333333 C4,12.0666667 3.4,12.6666667 2.66666667,12.6666667 C1.93333333,12.6666667 1.33333333,12.0666667 1.33333333,11.3333333 C1.33333333,10.6 1.93333333,10 2.66666667,10 Z M13.3333333,10 C14.0666667,10 14.6666667,10.6 14.6666667,11.3333333 C14.6666667,12.0666667 14.0666667,12.6666667 13.3333333,12.6666667 C12.6,12.6666667 12,12.0666667 12,11.3333333 C12,10.6 12.6,10 13.3333333,10 Z M8,8 C9.10666667,8 10,8.89333333 10,10 C10,11.1066667 9.10666667,12 8,12 C6.89333333,12 6,11.1066667 6,10 C6,8.89333333 6.89333333,8 8,8 Z M7.74462109,-0.0153680811 L14.1085821,6.34859295 L12.6943686,7.76280651 L7.71940752,2.78863192 L2.74462109,7.76280651 L1.33040752,6.34859295 L7.69436855,-0.0153680811 L7.71940752,0.00963191887 L7.74462109,-0.0153680811 Z"></path>
</svg>
