<?xml version="1.0" encoding="UTF-8"?>
<svg width="16px" height="16px" viewBox="0 0 16 16" version="1.1" xmlns="http://www.w3.org/2000/svg" xmlns:xlink="http://www.w3.org/1999/xlink">
  <title>Algemeen sport</title>
  <path d="M6.46,0.726666667 L7.61333333,1.39333333 C6.69333333,2.98 7.24,5.02 8.82666667,5.94 C9.47333333,6.31333333 10.56,6.94 10.56,6.94 C12.54,8.60666667 12.7533333,11.16 11.6866667,12.9933333 L11.6866667,12.9933333 L10.5333333,12.3266667 C11.2133333,11.1466667 11.0866667,9.72 10.3266667,8.68666667 L10.3266667,8.68666667 L6.13333333,15.9466667 L4.98,15.28 L6.98,11.8133333 L5.82666667,11.1466667 L4.82666667,12.88 L3.67333333,12.2133333 L7.10666667,6.26666667 C5.73333333,4.80666667 5.4,2.55333333 6.46,0.726666667 L6.46,0.726666667 Z M9.51333333,4 C9.88,3.36666667 10.7,3.14666667 11.3333333,3.51333333 C11.9666667,3.88 12.1866667,4.7 11.82,5.33333333 C11.4533333,5.96666667 10.6333333,6.18666667 10,5.82 C9.36666667,5.45333333 9.14666667,4.63333333 9.51333333,4 Z M8.13333333,1.16666667 C8.41333333,0.686666667 9.02,0.526666667 9.5,0.8 C9.98,1.08 10.14,1.68666667 9.86666667,2.16666667 C9.58666667,2.64666667 8.98,2.80666667 8.5,2.53333333 C8.02,2.26 7.86,1.64666667 8.13333333,1.16666667 Z"></path>
</svg>
