<?xml version="1.0" encoding="UTF-8"?>
<svg width="16px" height="16px" viewBox="0 0 16 16" version="1.1" xmlns="http://www.w3.org/2000/svg" xmlns:xlink="http://www.w3.org/1999/xlink">
    <title>Sport</title>
    <path d="M10.2928292,3.67333984 C10.7946474,3.67333984 11.2109091,3.91272727 11.5018182,4.36363636 L11.5018182,4.36363636 L12.2290909,5.51272727 C12.8181818,6.54545455 14.6109091,7.27272727 16,7.27272727 L16,7.27272727 L16,8.72727273 C14.3927273,8.72727273 12.3018182,8 11.3636364,6.90909091 L11.3636364,6.90909091 L10.92,9.09090909 L12.4545455,10.5454545 L12.4545455,16 L11,16 L11,11.6363636 L9.00146484,10.0356445 L9.00146484,3.99609375 C9.47245901,3.77493104 9.90291381,3.66734641 10.2928292,3.67333984 Z M8,0 L8,16 L6.22222222,16 L6.22222222,13.3333333 L0,13.3333333 L4.44444444,8.88888889 L1.77777778,8.88888889 L6.22222222,4.44444444 L3.55555556,4.44444444 L8,0 Z M11.3636364,0.363636364 C12.1563636,0.363636364 12.8181818,1.00363636 12.8181818,1.81818182 C12.8181818,2.60363636 12.1563636,3.27272727 11.3636364,3.27272727 C10.5563636,3.27272727 9.90909091,2.60363636 9.90909091,1.81818182 C9.90909091,1.00363636 10.5563636,0.363636364 11.3636364,0.363636364 Z"></path>
</svg>
