<?xml version="1.0" encoding="UTF-8"?>
<svg width="16px" height="16px" viewBox="0 0 16 16" version="1.1"
  xmlns="http://www.w3.org/2000/svg"
  xmlns:xlink="http://www.w3.org/1999/xlink">
  <title>Gymzaal-icoon</title>
  <path d="M4.97004744,7.97004744 L4.97004744,10.4944187 L11.0299526,10.4944187 L11.0299526,7.97004744 L12.0411153,7.97004744 L12.0411153,8.98121014 L13.052278,8.98121014 L13.052278,10.4944187 L14.0634406,10.4944187 L14.0634406,11.5055813 L13.052278,11.5055813 L13.052278,13.0187899 L12.0411153,13.0187899 L12.0411153,14.0299526 L11.0299526,14.0299526 L11.0299526,11.5055813 L4.97004744,11.5055813 L4.97004744,14.0299526 L3.95888475,14.0299526 L3.95888475,13.0187899 L2.94772205,13.0187899 L2.94772205,11.5055813 L1.93655935,11.5055813 L1.93655935,10.4944187 L2.94772205,10.4944187 L2.94772205,8.98121014 L3.95888475,8.98121014 L3.95888475,7.97004744 L4.97004744,7.97004744 Z M8,0 L16,6 L12,6 L8,3 L4,6 L0,6 L8,0 Z"></path>
</svg>
