<?xml version="1.0" encoding="UTF-8"?>
<svg width="16px" height="16px" viewBox="0 0 16 16" version="1.1" xmlns="http://www.w3.org/2000/svg" xmlns:xlink="http://www.w3.org/1999/xlink">
  <title>Sportveld-icoon</title>
  <path d="M16,1 L16,15 L0,15 L0,1 L16,1 Z M14,3 L2,3 L2,5 L4,5 L4,11 L2,11 L2,13 L14,13 L14,11 L12,11 L12,5 L14,5 L14,3 Z M3,6 L1,6 L1,10 L3,10 L3,6 Z M15,6 L13,6 L13,10 L15,10 L15,6 Z M8,6 C9.1045695,6 10,6.8954305 10,8 C10,9.1045695 9.1045695,10 8,10 C6.8954305,10 6,9.1045695 6,8 C6,6.8954305 6.8954305,6 8,6 Z M8,7 C7.44771525,7 7,7.44771525 7,8 C7,8.55228475 7.44771525,9 8,9 C8.55228475,9 9,8.55228475 9,8 C9,7.44771525 8.55228475,7 8,7 Z"></path>
</svg>
