<?xml version="1.0" encoding="UTF-8"?>
<svg width="16px" height="16px" viewBox="0 0 16 16" version="1.1" xmlns="http://www.w3.org/2000/svg" xmlns:xlink="http://www.w3.org/1999/xlink">
    <title>Tafeltennis-icoon</title>
    <path d="M3.07994465,9.89119314 L4.96732851,11.8627486 L2.52525426,14.5004965 C2.48310651,14.5460214 2.42836973,14.5779804 2.36800696,14.5923082 L2.36772114,14.592376 C2.30702808,14.6067822 2.24380291,14.606759 2.18312046,14.5923082 C2.12291541,14.5779711 2.06823419,14.5462989 2.02584123,14.5012097 L0.64901738,13.0368179 C0.607088197,12.9922219 0.571699316,12.9419019 0.543909007,12.8873624 L0.542281041,12.8841675 C0.517054347,12.8346592 0.517662451,12.7759372 0.543909007,12.726962 C0.571736326,12.6750371 0.605784699,12.626695 0.645301964,12.5830035 L3.07994465,9.89119314 Z M4.16575537,4.67676984 L10.1868503,11.0316771 L7.77535118,10.8653431 C7.38576706,10.8384714 6.99435685,10.8596089 6.60993237,10.9282798 L6.34481988,10.9756376 C6.1388527,11.0124302 5.94512095,11.0993958 5.78074836,11.2288478 L3.77372906,9.13683018 C3.9584162,8.87247686 4.07301692,8.56558896 4.10680646,8.24488616 L4.11052409,8.20960147 C4.14731957,7.86036871 4.16575537,7.50944502 4.16575537,7.15827921 L4.16575537,4.67676984 Z M4.70746295,3.4235979 L5.05691646,2.93196729 C6.212518,1.30620286 8.25918729,0.573341282 10.1841034,1.09604865 L10.4487905,1.16792394 C12.2309925,1.65187757 13.5517717,3.15360855 13.804184,4.98301914 C14.064349,6.86861928 13.3678226,8.75987838 11.9468014,10.0263192 L11.3654522,10.5444286 L4.70746295,3.4235979 Z M11.7522354,11.7563565 C11.786588,11.7197486 11.8220828,11.6842296 11.8586672,11.649852 C12.8228721,10.7438091 14.3390074,10.7909587 15.2450503,11.7551636 L15.3340177,11.8498421 C16.2539829,12.8288629 16.2148113,14.3658839 15.2461713,15.2967729 L15.2449285,15.2979673 C14.2692888,16.2355832 12.7272336,16.2350559 11.7522354,15.2967729 C10.7845386,14.3655165 10.7453883,12.8293043 11.6643936,11.8499653 L11.7522354,11.7563565 Z"></path>
</svg>
