<?xml version="1.0" encoding="UTF-8"?>
<svg width="16px" height="16px" viewBox="0 0 16 16" version="1.1" xmlns="http://www.w3.org/2000/svg" xmlns:xlink="http://www.w3.org/1999/xlink">
    <title>Tennis icoon</title>
    <g transform="translate(1.000000, 0.000000)" fill-rule="nonzero">
      <path d="M12.915465,1.08664985 C11.2060652,-0.622470017 8.07947075,-0.279185257 5.93906846,1.86086655 C4.7702481,3.02949552 4.09817639,4.68748788 4.08356614,5.84881292 C4.06895588,7.00283403 4.27349945,8.69004211 3.09737396,9.86597501 L0,12.9628418 L1.03732807,14 L4.13470203,10.9031332 C5.31082752,9.72720032 6.99831191,9.93171039 8.15252202,9.91710253 C9.30673213,9.90249467 10.9723011,9.23053301 12.1411215,8.06190403 C14.2742187,5.92185223 14.6248648,2.79576973 12.915465,1.08664985 Z M6.19474792,7.79896252 C5.07706344,6.68146106 5.42770955,4.43185029 6.9690914,2.89072083 C8.51047326,1.34959137 10.7531473,0.999002682 11.8781369,2.11650414 C12.9958214,3.23400559 12.6451753,5.48361636 11.1037934,7.02474582 C9.56241158,8.56587528 7.31973751,8.91646397 6.19474792,7.79896252 Z" id="Shape"></path>
      <path d="M12,11.5 C12.3975,11.5 12.78,11.6575 13.0575,11.9425 C13.6425,12.5275 13.6425,13.48 13.0575,14.065 C12.78,14.3425 12.3975,14.5 12,14.5 C11.6025,14.5 11.22,14.3425 10.9425,14.0575 C10.3575,13.4725 10.3575,12.52 10.9425,11.935 C11.22,11.6575 11.6025,11.5 12,11.5 M12,10 C11.235,10 10.4625,10.2925 9.8775,10.8775 C8.7075,12.0475 8.7075,13.945 9.8775,15.1225 C10.4625,15.7075 11.235,16 12,16 C12.765,16 13.5375,15.7075 14.1225,15.1225 C15.2925,13.9525 15.2925,12.055 14.1225,10.8775 C13.5375,10.2925 12.765,10 12,10 L12,10 Z" id="Shape"></path>
    </g>
</svg>
