<?xml version="1.0" encoding="UTF-8"?>
<svg width="16px" height="16px" viewBox="0 0 16 16" version="1.1" xmlns="http://www.w3.org/2000/svg" xmlns:xlink="http://www.w3.org/1999/xlink">
    <title>Textielcontainer</title>
    <g transform="translate(1.000000, 3.000000)">
      <path d="M13.8284271,2.82842712 L11,5.65685425 L11,10 L3,10 L3,5.65685425 L0.171572875,2.82842712 L3,0 L6,0 C6,0.55228475 6.44771525,1 7,1 C7.55228475,1 8,0.55228475 8,0 L11,0 L13.8284271,2.82842712 Z M10,1 L8.73181186,1.0010775 C8.38584934,1.59828461 7.7398375,2 7,2 C6.2601625,2 5.61415066,1.59828461 5.26818814,1.0010775 L4,1 L4,9 L10,9 L10,1 Z M2.99957288,1.414 L1.58578644,2.82842712 L2.99957288,4.242 L2.99957288,1.414 Z M10.9995729,1.414 L10.9995729,4.242 L12.4142136,2.82842712 L10.9995729,1.414 Z"></path>
    </g>
</svg>
