<?xml version="1.0" encoding="UTF-8"?>
<svg width="14px" height="14px" viewBox="0 0 14 14" version="1.1" xmlns="http://www.w3.org/2000/svg" xmlns:xlink="http://www.w3.org/1999/xlink">
    <title>Textiel afval icoon</title>
    <path d="M13.8284271,4.82842712 L11,7.65685425 L11,12 L3,12 L3,7.65685425 L0.171572875,4.82842712 L3,2 L6,2 C6,2.55228475 6.44771525,3 7,3 C7.55228475,3 8,2.55228475 8,2 L11,2 L13.8284271,4.82842712 Z M10,3 L8.73181186,3.0010775 C8.38584934,3.59828461 7.7398375,4 7,4 C6.2601625,4 5.61415066,3.59828461 5.26818814,3.0010775 L4,3 L4,11 L10,11 L10,3 Z M2.99957288,3.414 L1.58578644,4.82842712 L2.99957288,6.242 L2.99957288,3.414 Z M10.9995729,3.414 L10.9995729,6.242 L12.4142136,4.82842712 L10.9995729,3.414 Z"></path>
</svg>
