<svg xmlns="http://www.w3.org/2000/svg"
  xmlns:xlink="http://www.w3.org/1999/xlink" x="0px" y="0px" viewBox="0 0 24 24"
  xml:space="preserve" width="28" height="28">
  <title>Textiel</title>
  <circle cx="12" cy="12" r="12" style="fill: rgb(229, 0, 130);"></circle>
  <g transform="translate(4.000000, 4.000000)">
    <path
      d="M15.31,2.56 L12.21,0.4 L12.19,0.38 L12.17,0.36 C11.78,0.12 11.34,0 10.89,0 L10.75,0 C10.74,0 10.74,0 10.73,0 L5.28,0 C5.27,0 5.27,0 5.26,0 L5.12,0 C4.67,0 4.23,0.13 3.84,0.36 L3.82,0.38 L3.8,0.4 L0.7,2.56 L0,3.05 L0.38,3.8 L1.49,5.98 L1.8,6.58 L2.48,6.5 L3.35,6.39 L3.74,13.58 L3.79,14.5 L4.71,14.5 L11.29,14.5 L12.21,14.5 L12.26,13.58 L12.65,6.39 L13.52,6.5 L14.2,6.58 L14.51,5.97 L15.62,3.79 L16,3.05 L15.31,2.56 Z M8,3.34 C6.64,3.34 5.54,2.3 5.42,0.97 L10.59,0.97 C10.46,2.3 9.36,3.34 8,3.34 Z"
      fill="#FFFFFF"></path>
  </g>
</svg>