<?xml version="1.0" encoding="UTF-8"?>
<svg width="14px" height="14px" viewBox="0 0 14 14" version="1.1" xmlns="http://www.w3.org/2000/svg" xmlns:xlink="http://www.w3.org/1999/xlink">
    <title>Rest afval icoon</title>
    <g id="Icon/12/trashcontainer" stroke="none" stroke-width="1" fill="none" fill-rule="evenodd">
        <path d="M5,13 C5,13.5522847 4.55228475,14 4,14 C3.44771525,14 3,13.5522847 3,13 L5,13 Z M11,13 C11,13.5522847 10.5522847,14 10,14 C9.44771525,14 9,13.5522847 9,13 L11,13 Z M12,4 L11,12 L3,12 L1.9954834,4 L12,4 Z M5,5 L4,5 L4,11 L10,11 L10,5 L9,5 L9,10 L5,10 L5,5 Z M9,0 L9,2 L13,2 L13,3 L1,3 L1,2 L5,2 L5,0 L9,0 Z M8,1 L6,1 L6,2 L8,2 L8,1 Z" id="Combined-Shape" fill="#000000"></path>
    </g>
</svg>
