<?xml version="1.0" encoding="UTF-8"?>
<svg width="16px" height="16px" viewBox="0 0 16 16" version="1.1" xmlns="http://www.w3.org/2000/svg" xmlns:xlink="http://www.w3.org/1999/xlink">
    <title>Voetbal icoon</title>
    <path d="M8,0 C3.584,0 0,3.584 0,8 C0,12.416 3.584,16 8,16 C12.416,16 16,12.416 16,8 C16,3.584 12.416,0 8,0 Z M8.8,2.64 L9.88,1.88 C11.336,2.328 12.576,3.288 13.384,4.552 L13.072,5.624 L11.992,5.992 L8.8,3.76 L8.8,2.64 Z M6.12,1.88 L7.2,2.64 L7.2,3.76 L4.008,5.992 L2.928,5.624 L2.616,4.552 C3.424,3.296 4.664,2.336 6.12,1.88 Z M4.064,12.088 L3.152,12.168 C2.184,11.048 1.6,9.592 1.6,8 C1.6,7.904 1.608,7.816 1.616,7.72 L2.416,7.136 L3.52,7.52 L4.688,10.992 L4.064,12.088 Z M10,14.072 C9.368,14.28 8.696,14.4 8,14.4 C7.304,14.4 6.632,14.28 6,14.072 L5.448,12.88 L5.96,12 L10.048,12 L10.56,12.888 L10,14.072 Z M9.816,10.4 L6.184,10.4 L5.104,7.184 L8,5.152 L10.904,7.184 L9.816,10.4 Z M12.848,12.168 L11.936,12.088 L11.304,10.992 L12.472,7.52 L13.584,7.144 L14.384,7.728 C14.392,7.816 14.4,7.904 14.4,8 C14.4,9.592 13.816,11.048 12.848,12.168 Z" fill-rule="nonzero"></path>
</svg>
