<?xml version="1.0" encoding="UTF-8"?>
<svg width="16px" height="16px" viewBox="0 0 16 16" version="1.1"
    xmlns="http://www.w3.org/2000/svg"
    xmlns:xlink="http://www.w3.org/1999/xlink">
    <title>Wegen, verkeer en straatmeubilair</title>
    <path d="M13,0 L13,1.999 L15.9737778,2 C15.9737778,3.6478278 14.6452269,4.98535593 13.000829,4.99988057 L13,5.999 L15.9737778,6 C15.9737778,7.6478278 14.6452269,8.98535593 13.000829,8.99988057 L13,9.999 L15.9737778,10 C15.9737778,11.6478278 14.6452269,12.9853559 13.000829,12.9998806 L13,16 L3,16 L3,13 C1.40231912,13 0.0963391206,11.75108 0.00509269341,10.1762728 L5.41788836e-14,10 L3,9.999 L3,9 C1.40231912,9 0.0963391206,7.75108004 0.00509269341,6.17627279 L5.41788836e-14,6 L3,5.999 L3,5 C1.40231912,5 0.0963391206,3.75108004 0.00509269341,2.17627279 L5.41788836e-14,2 L3,1.999 L3,0 L13,0 Z M11,1 L5,1 L5,14 L11,14 L11,1 Z M8,10 C8.83,10 9.5,10.67 9.5,11.5 C9.5,12.33 8.83,13 8,13 C7.17,13 6.5,12.33 6.5,11.5 C6.5,10.67 7.17,10 8,10 Z M8,6 C8.83,6 9.5,6.67 9.5,7.5 C9.5,8.33 8.83,9 8,9 C7.17,9 6.5,8.33 6.5,7.5 C6.5,6.67 7.17,6 8,6 Z M8,2 C8.83,2 9.5,2.67 9.5,3.5 C9.5,4.33 8.83,5 8,5 C7.17,5 6.5,4.33 6.5,3.5 C6.5,2.67 7.17,2 8,2 Z"></path>
</svg>