<?xml version="1.0" encoding="UTF-8"?>
<svg width="16px" height="16px" viewBox="0 0 16 16" version="1.1" xmlns="http://www.w3.org/2000/svg" xmlns:xlink="http://www.w3.org/1999/xlink">
  <title>Zwemmen-icoon</title>
  <path d="M13.336,13.0001271 C14.224,13.0001271 14.72,13.2961271 15.08,13.5121271 C15.376,13.6961271 15.552,13.8001271 16,13.8001271 L16,15.4001271 C15.112,15.4001271 14.616,15.1041271 14.256,14.8881271 C13.96,14.7121271 13.776,14.6001271 13.336,14.6001271 C12.888,14.6001271 12.712,14.7041271 12.416,14.8881271 C12.048,15.1041271 11.56,15.4001271 10.672,15.4001271 C9.784,15.4001271 9.288,15.1041271 8.928,14.8881271 C8.632,14.7121271 8.448,14.6001271 8.008,14.6001271 C7.56,14.6001271 7.384,14.7041271 7.088,14.8881271 C6.72,15.1041271 6.224,15.4001271 5.336,15.4001271 C4.448,15.4001271 3.952,15.1041271 3.592,14.8881271 C3.296,14.7041271 3.112,14.6001271 2.672,14.6001271 C2.232,14.6001271 2.048,14.7041271 1.752,14.8881271 C1.384,15.1041271 0.888,15.4001271 0,15.4001271 L0,13.8001271 C0.448,13.8001271 0.624,13.6961271 0.92,13.5121271 C1.288,13.2961271 1.784,13.0001271 2.672,13.0001271 C3.56,13.0001271 4.056,13.2961271 4.416,13.5121271 C4.712,13.6961271 4.888,13.8001271 5.336,13.8001271 C5.784,13.8001271 5.96,13.6961271 6.256,13.5121271 C6.624,13.2961271 7.12,13.0001271 8.008,13.0001271 C8.896,13.0001271 9.392,13.2961271 9.752,13.5121271 C10.048,13.6881271 10.232,13.8001271 10.672,13.8001271 C11.112,13.8001271 11.296,13.6961271 11.592,13.5121271 C11.952,13.2961271 12.448,13.0001271 13.336,13.0001271 Z M13.32,9.40012707 C14.208,9.40012707 14.704,9.69612707 15.064,9.91212707 C15.36,10.0881271 15.544,10.2001271 15.984,10.2001271 L15.984,11.8 L15.7860185,11.794178 C15.0302778,11.7513493 14.586,11.4861271 14.256,11.2881271 C13.96,11.1121271 13.776,11.0001271 13.336,11.0001271 C12.888,11.0001271 12.712,11.1041271 12.416,11.2881271 C12.056,11.5041271 11.56,11.8001271 10.672,11.8001271 C9.784,11.8001271 9.288,11.5041271 8.928,11.2881271 C8.632,11.1121271 8.448,11.0001271 8.008,11.0001271 C7.56,11.0001271 7.384,11.1041271 7.088,11.2881271 C6.728,11.5041271 6.232,11.8001271 5.344,11.8001271 C4.456,11.8001271 3.96,11.5041271 3.6,11.2881271 C3.304,11.1121271 3.12,11.0001271 2.68,11.0001271 C2.24,11.0001271 2.056,11.1041271 1.76,11.2881271 C1.384,11.5041271 0.888,11.8001271 0,11.8001271 L0,10.2001271 C0.448,10.2001271 0.624,10.0961271 0.92,9.91212707 C1.28,9.69612707 1.776,9.40012707 2.664,9.40012707 C3.552,9.40012707 4.048,9.69612707 4.408,9.91212707 C4.704,10.0881271 4.888,10.2001271 5.328,10.2001271 C5.776,10.2001271 5.952,10.0961271 6.248,9.91212707 C6.608,9.69612707 7.104,9.40012707 7.992,9.40012707 C8.88,9.40012707 9.376,9.69612707 9.736,9.91212707 C10.032,10.0881271 10.216,10.2001271 10.656,10.2001271 C11.096,10.2001271 11.28,10.0961271 11.576,9.91212707 C11.936,9.69612707 12.432,9.40012707 13.32,9.40012707 Z M2.4,1.00012707 C4.4,0.992127069 5.544,1.36012707 6.784,2.60012707 L6.784,2.60012707 L11.92,7.72812707 C11.8,7.79212707 11.688,7.85612707 11.592,7.91212707 C11.296,8.09612707 11.112,8.20012707 10.672,8.20012707 C10.232,8.20012707 10.048,8.08812707 9.752,7.91212707 C9.392,7.69612707 8.896,7.40012707 8.008,7.40012707 C7.12,7.40012707 6.624,7.69612707 6.256,7.91212707 C5.96,8.09612707 5.784,8.20012707 5.336,8.20012707 C4.888,8.20012707 4.712,8.09612707 4.416,7.91212707 C4.248,7.81612707 4.048,7.69612707 3.8,7.60012707 L3.8,7.60012707 L6.4,5.00012707 L5.6,4.20012707 C4.712,3.31212707 3.856,2.99212707 2.4,3.00012707 L2.4,3.00012707 Z M11.6,1.00012707 C12.7045695,1.00012707 13.6,1.89555757 13.6,3.00012707 C13.6,4.10469657 12.7045695,5.00012707 11.6,5.00012707 C10.4954305,5.00012707 9.6,4.10469657 9.6,3.00012707 C9.6,1.89555757 10.4954305,1.00012707 11.6,1.00012707 Z"></path>
</svg>
