<svg width="24" height="24" viewBox="0 0 24 24" fill="none" xmlns="http://www.w3.org/2000/svg">
  <path
    d="M21.5975 21.4756C19.9287 21.4756 18.265 20.8829 16.7974 19.8086C13.8721 21.9731 10.1275 21.9731 7.19723 19.8086C5.73459 20.8829 4.06588 21.4756 2.39716 21.4756H0.00466529V24H2.40219C4.06085 24 5.68936 23.5607 7.20226 22.751C10.2281 24.381 13.7766 24.381 16.8024 22.751C18.3153 23.5713 19.9438 24 21.6025 24H24V21.4756H21.5975ZM8.40353 0H4.80474C3.48283 0 2.40219 1.13782 2.40219 2.52437V8.36163L0.854102 8.89085C0.542474 8.9914 0.281109 9.21896 0.135348 9.52591C-0.0104135 9.82756 -0.0455973 10.1821 0.0649803 10.5103L2.3469 18.946H2.40721C4.32724 18.946 6.03114 17.8346 7.20729 16.4216C8.38343 17.8346 10.0873 18.946 12.0074 18.946C13.9274 18.946 15.6313 17.8346 16.8074 16.4216C17.9836 17.8346 19.6875 18.946 21.6075 18.946H21.6678L23.9246 10.5103C24.0201 10.1821 23.995 9.82756 23.8542 9.52591C23.7085 9.21896 23.4471 8.99669 23.1355 8.89085L21.6025 8.36163V2.52437C21.5975 1.13782 20.5218 0 19.1999 0H15.6011H8.40353ZM4.80474 2.52437H19.1999V7.54135L12.0023 5.05402L4.80474 7.54135V2.52437Z" />
</svg>